<mxfile host="app.diagrams.net" agent="Mozilla/5.0 (Windows NT 10.0; Win64; x64) AppleWebKit/537.36 (KHTML, like Gecko) Chrome/130.0.0.0 Safari/537.36" version="24.8.3">
  <diagram name="Page-1" id="5EtrgTHuD5VsLcXQJPw3">
    <mxGraphModel dx="1687" dy="878" grid="0" gridSize="10" guides="1" tooltips="1" connect="1" arrows="1" fold="1" page="0" pageScale="1" pageWidth="850" pageHeight="1100" math="0" shadow="0">
      <root>
        <mxCell id="0" />
        <mxCell id="1" parent="0" />
        <mxCell id="5DEDQGz0tck6MsNurVrF-1" value="" style="shape=image;verticalLabelPosition=bottom;labelBackgroundColor=default;verticalAlign=top;aspect=fixed;imageAspect=0;image=data:image/png,iVBORw0KGgoAAAANSUhEUgAAAl8AAAHlCAYAAADLBpmTAAAAAXNSR0IArs4c6QAAAARnQU1BAACxjwv8YQUAAAAJcEhZcwAADsMAAA7DAcdvqGQAADK7SURBVHhe7d1/bBzpfd/x767CSJF1vj1ZjlOnsYvV2rwwkREwzuaiS5EAxVKX8P6oirB/Gc46rnziH72ySJSA/xmFUbYQ0q6VP1bJoShzMIK0RMN/jrbF/aMOGivXNc0UJ5c53pELX9IaTnxRV7k7WQojsvPMPLMcLmep/THzzDPD9wuY48zscGa+K5LPh8/zcC5XKpX2xPUJ+egvfkTe523Izt9syJt3Wnqry4eekY/9+DkZ05tHHhtw6sIlKb7/nrS+/qo80PuS59Utf/mKvLWtdw2oV12FTz4vHz7zjnzna38sbb0vKt659cbO25a9p4N4Qn7wZ0py2v9ikvfk3dtvyN/rrbjln/5Jef/ZzsVdf393S959/R29lYQPyQ9d/LDId/5Mvv9tvct3/u/k+R/dlbdfPyWv/rXeF4Wu7+n3jvh+cL/eP9D57pe7f35LvvtXerOnovzIsxPyxN/297PCmPO/IBM/5rzVMXyPDi32f4vHy+rP6l7i/FmtFH/igUy8/wdk409/QCz66kdAoVCQdtvcTwE3fL355pt6EwAAAHHK648AAAAwgPAFAABgUP6j5/UaAAAAYpd/31Of0KsAAACIG8OOAAAABuU31l7Tq6NZWVmRf/YrvyIv/uvf0HsAAADQbeSer7t378rnPvc5+bf/7gvy/G8symt/tqZfAQAAQLeRJ9z/+q//ujzza/9BPnu9IX/4te/KU089pV8BAABAt/woTwr+zGc+I//4hd9x17/4O4vux7GxMfne977nrgMAgOMll8v1tdhG3dM3v/lNvXWYei2q+x562PH73/++bG1tuuv/5jfn5EMXnpO9135XTpw4IR/84Afd/Uf7iryQe1a+uKU3O3rtD+rnGAAAkIS9vb0jFxutra3Jzz3786EBTO1Tr6ljojB0+HrhhRfkM9dX3fW3/sd/cj/+vzf+u9y4ccNdBwAASIuf/umflj/9+p8cCmB+8FKvqWOiMFT42t7eljt3vL+S/OzPPSGVBe//DVkqlfrs9QIAALBLdwCLI3gpQ4Wver0u/7L+J3rL897//I/y4EH0///7r7wQGCN+4St6b5AegvzKF+VZfZw6bOuLz3Y+79nA+OTjzwcAAI6rYACLI3gpQ4Wvt956y/3o93rt7e7Kzv/9hvzRH/2Ru79/t2XuY4Ew5C6/LL+nX1V+6Xf9MeIvy+d+7ws95nk55/mCyO+r4778Ofm9X87Jr8rve5/nbN+eu+5ENE9/5wMAIHkH28feC9JlqPClJtUH3btdk0qlIvn8oKe7KLU3/TAUCEX6VddXXtBfXAdD2UHOeX7/X0lJrf7SP3U+/6L882l3S29/S97wQ1Zf5wMAIHkH28feC6ITHGoMDkFGaejw9WvPnNFbIj/Yfk2+8IUv6K0IbX1Rnv1lkS+7X1xvSu2i3j+sqM8HAAAyo3uOV/ccsKgMFb6+/e1vy6c++y/c9W/8+7L89m//djzdnm9uyO2LE/Ixtb61Iv/1trt3eFGfDwAAZEKvyfVxBLChwtfNmzflW9/0nnXxW7/1m/KzP/uz7nrkfuma1GROPqaGCX91Q35y1J6qqM8HAAAO8eei9Vps9MlPfvJQ8PL5AUwdE4VcqVTae/NN71ERg7h3754UCgXGmgEAAAYwVM+XcurUKb0GAACAfg0dvk6ePCl/8Ad/oLcAAADQj6GHHQEAADC4oXu+AAAAMDjCFwAAgEGELwAAAIMIXwAAAAYRvgAAAAwifAEAABhE+AIAADDIfc7X2pr3/2kEAABAvOj5AgAAMIjwBQAAYBDhCwAAwCDCFwAAgEGELwAAAIMIX8Y0ZK4wJfWW3kTK8O+XGo05KRQKUpiqC/9ctuL7aTQNOe18jT8ZWE439Et9U+eYkpNh/wbO99D+uedkTO9OROBezmToC4bwBSBDnEZ9ZlGqS21pr85KUe8FsqcsD9bbcq/tLEtVGZuJKCS16nJmRuS+Oq9a1sclP3Cwi4oTEDv3siS781fDw2IKEb4AZExZxs/rVeA4qEzLjmxIPopgsr0pJ8rj8khvSnFWHlb0ummNFRmrqtqUijxYEBm7lY30ZW34aswVvKEDtcwlFrujt12XKV3XVKb63FtSn9r/N8vEP5nzG+D+v9WW3pkRgdoKhTnn98ssUENZM7IoTZmfzND314Gvw3q2husy+/PQMBVSypdlx+/qVb1Xznt6aNgwsP9Mr59pKsg15+V06L9HS046P+f9YcDOUOeB6wWHQL2hzdNzU85+fR9h96aGFqfqhwJJfmtDHgV+k9otTciJzW29lW7Whq9KrS3ttlqWpLp4PSM/bJxG4brITVXXuhPh569mpC4VvCZl+fK6/jdrSy2p35Qi4zTkk/MyoYavnHpuyrLTqGeFqm1ZLq/r77ElkeuZ+EKsSE39vJCyLDi1rc5mYdAxy1+HgZ+HS1Vpzt9wqkX/mnLK+SXDDTEr03JvdVZ23f1O4HG+v3c6Q5IiJ93vb7V/XnadryW1/77ztRQ+TFmR++112Vme7ApSKnhNypjzc949rzqH+3P+4HnvOW1bfiY4l6wp+fGbzms12el5b8ePvcOO/qRZ9zfZrHAahZt6HkpxVq5Vm5KJEN+6JcvNqlzLRGOntbZko7wgL+oQWZy95jTqGaFq071D7vfYzKI0M/LbZOZk+esw+POwMu3UtSFbx7MdHpKe8+WEnUeLK4HerS2nYQ8EM+f72+0tUvudr6UH+mtp1/la8obzwhTl4aofpHQAc37Ojzk/5x92/5x3r1eVHf8XbjVM6bRtJzo/Usqyc0l/Tq97q9QC4fF4yP/8hTN61SKqm31GZMlJxm0ngS+U9f5MacnWhl4FjKvq7y+9pL+rEjienLBzf2Gjqwepuj9hXi3Dfn+75y7L2EqUfZL931v3MGP3MGSa5f/kzrt61SLbm9Isj4v7Fru9Ku7eDGjKsj9ZUPcWTWehzSteksvlxYwMXWnFkkw05+WG/pnTql/PTg+sqs2pJlP/XlmV5a9DREb1YnX+EtD5mtl1vkoODeep/c7X0in9tZR3vpZChx0b9cCQYUvGnAbYDTzOz/kd5+d86Hmd6435+azlfP5ioCcsqNe99ZjzJefHA716DTk1L/u9aCln57Bj5UVZkHmZVEMiVzdlIjM9X2WZ2LzqDfW48zhqko3+hqLMri7JxPykHirOwoT7itSWqrI449VzVS47v69lhVObO+dw/98rU3/UkilZ/jpEdLy/BDx1VQWYitzX39/epHZncb+/nf3uIym8faedr6XQYcdKSU74w4KFSTk1sSTvukONaihSPe5h/7zefDDvemp40t3vzulS87vC9Lq3Hoqz8u6S6GeaqeGwVXmYjewluVKptLe2tqY3AQDWUlMyJjflWjsrv7gBx5O9E+4BAAc0bszvT8kAkFqELwCw1sHn580sVmWJJ/cDqZerXv6pvdp//preBAAAQJzs/GtHAACAjGLYEQAAwKCh/tpRzT0AACBt1EOFgaTR8wUAAGDQSD1fe+5/0y+nP/qoy27Hpq47L+m1dMtduKLXPNRlt6zXRc8XbEDPFwAAgEGELwAAAIOsC19q6KV7yQLqSpes1gUASF6i4avfBq7f42zR7/32e5wt+r3ffo+zRb/32+9xAAAcJZHwFUXDZWPjR129URcAAB7j4SvqhsqWho+6+kNdAIDjzlj4Uo1TXA1UnOd+HOoaHHUBAI4zI+HLVINkuuGjrtFQFwDgOIo9fNHARoO6RpPVugAA6ZP/6Hm9FoOkGqC4r0td0aIuAMBxkn/fU5/Qq9FKuuGJ6/rUFQ/qAgAcF4k8agIAAOC4ym+svaZXo2PLb/tR3wd1xYu6AADHQeQ9X7Y1NFHdD3WZQV0AgKyLdcI9AAAADsq/ta3XImDrb/ej3hd1mUVdAIAsY8I9AACAQYQvAAAAgwhfAAAABvUOX405KRTmpKE3AQBAl1ZdzhQK8qS/TNVH6NVoyOnClJxs6U0T3Pv3r9nr+mp/oEZnOT1wOAg/99hc97lCjnPyyJNzzkEH7jVi6hpO5hnTmy53n1fvmXq0Fw35GmlJfaoghRWRqt7TD9snEw97f9SVDOoCYD0VBiaXZWe9Lffa3nJ/YlNO6Jft1BVuirPybntVHhb1dk9leeDXuVSVsZmuoDKknWnnXCuB9NXacoJJU8Zu7Yed/NaGPBo/P8C9DqIlJ53M86STeXb0Ho/zPs2I3Hf/XZdkd/5qpKEvJHwVZXa1Le3atN4GAAAHOY321XnZXToYBnZqta5GPIMq006NG5KPIoycH5dHGypwefK3lmV3YUFk038UQ0vGlp339VKkiSugKA+dzHOvO/M0VmSsqupUKvLAuaVgIBzV8L2jAAAcV61bMtasyk5Fb4fpGpIMDq+p4TZ/vzukdojukQn5XE/38FxwW6/Xu4fN1P4ZGZOmnJr0r9t9nj6oYFK+LDt+HjpQZ6BHLLD/TH1L7+xSvOQEnGUZc6/vBa1Hl0qyu+hcwz1gW040J2TXvVY/NSoh750aQhxgSLjT26btlibkRCcQjo7wBQDAMMrj8kiv5utTurEPhINJ1TOmh+rWFyQ/sx9ydmp6f3tJdhavHw4/jRtyamJJH9OW+0eFvFBOwNqc9j5/qSon5m84YaYi99X1/CHE2iAn1YFN1bjinHd1Vnbd/arOwNDrkjiBSBVzsP77KmC5x3cryu5EU064ucYJWqJCXUV2qrpn7UAPVLewGh0jv3fxI3wBADCM5v78rt3ZVaehV8FGc+cuBXrGirPysOqHDEdnMrfqiQqhhuMWZ0aY6O0ErBf1xSMZJtSBzQmRjzq9Ug49R6sTzGYWvR4itb+8IA/0LezOXusRoALzvlTQmii5oe7RuDfM190DdVCPGsPeu0otEBiTF1n42tMfbTXs/VFXMqgLgNWKKiQMGWjUcFxnMve6PCjr/UHu5HLVY3TVDTWD/3VhTJz7ur+woXu3fFVdi14G6lFz6HlfY07Q2pn2Pnf30mWRzVvDzfeK4L3rHmY8OgQOjp4vAAAG5k3CPjXZ46/+3HC2KGN+w+8ErpOLuidse1NO+EOW7twxtRJO9ai9s1B2Gv/ulHdeHpWDPWmB3qiYqV6szl//6ToPhjGH2t+cl1O6/nz9eu/7c+d9zcvpeZFHfr5Rn7/ofH5nvtfgDrx3A8758nrP/Pe0Iaece4ty0j/hCwCAIbhDjUsi+8/AmpH8wk39148Vue/O89KvufOi9F9CVl6UB07YeELtv7opu2E9X4FnTD0xPyEPZ7sb/qI8vKYe+aDPf+hRCb2o+VTBCffD0MHzqgozXp0yP9m5X++8zn73kRTevtNqLpf3ySGKsnPZeROCk/jd+3Q+9JzvdYTHvnd9UL1nnX/bGZGuv2odVa5UKu2tra3pzf4UnJtRuodQbH6G0VHDPd33TV3Joy7n2Dsv6bV0y124otc81GW3rNfVbrfdj0CS8h+7EGGUAwAAwJHyY+//Yb06uqN+q0/SqPdFXWZRFwAgy/IydlKvAgAAIG552XmoV6Nh22/3Ud0PdZlBXQCArMu/991X9Wp0bGloor4P6ooXdQEAjoP8W/vPEAMAAEDMYnvOV9K/7cd1feqKB3UBAI6LWB+ymlTDE/d1qSta1AUAOE5if8K96QbI1PWoKxrUBQA4boz874VoYEdDXdHIal0AgHQx9v92VA1SXI1SnOd+HOoaHHUBAI4zY+HLF3XjZEtjR139oS4AwHFnPHwpqqEatbGK4hxRo67eqAsAAE8i4cvnN1zBJUy/x9mi3/vt9zhb9Hu//R5ni37vt9/jAAA4SqLhK0xWGzjqSpes1gUASJ514QsAACDLCF8AAAAGEb4AAAAMInwBAAAYRPgCAAAwKPdPLpX2/tt/WdOb/SkUCnoNAID0aLfbeg1ITv59T31CrwIAACBuDDsCAAAYlN9Ye02vAgAAIG65Uqm0t7Y23JyvrDz1O6c/+qjLbofquvOSXku33IUres1DXXajrnTx62LOF2yQ/+h5vQYAAIDY5d/a1msAAACInXUT7tWQUveSBdQFAACURMNXvw13v8fZot/77fc4W/R7v/0eBwDAcZRI+IqiQbaxUaeu3mysCwCAJBgPX1E3wLY06NTVH1vqAgAgKcbCl2p042p44zz341DX4JKsCwCApBkJX6YaWtMNOnWNxnRdAADYIPbwRXCIBnUBAJANsYavpBrWuK9LXdFK6roAACQhtvCVdIMa1/WpKx5JXx8AAFOMTbgHAABATOHLll6MqO+DuuJly30AABCnyMOXbQ1oVPdDXWbYdj8AAESNYUcAAACDIg1ftvZajHpf1GWWrfcFAEAU6PkCAAAwiPAFAABgEOELAADAoNDw1ZgrSKHgLVP1lt4LAAAScbcuUzWnXfaXL9XFeOu8Nbd//dqcNPTuRATuZaqZvpxyOHy16rI13ZZ2Wy1LMjF/VfrJX7ZPkh72/qgrGbbfHwAYo4LXy8ty+dNOuzznLUvnNmVbv2yEuodXRJb09dufHpetLf2acQ2Z69yLk1NuOznlrn4pJQ6Hr+KszFb0upyX8bJeBQAAhrWk/uV5mXh+VWbP6l2OynM16TTVJtzdlOa5cScVaGedrFDS66Ztrcji09O6/oq8eFFkeStdvV+PmfO1LZvNCSkV9SYAADDn7i1Zfrsq0z2DTkPmalMy99Wp/aHAA0OUgeHB0P3e59ebjxnGK01L9e15uRo6xOcExC/55y3InN8j1jVU2tnf7z2rocWQ4dXW3Q0pn+3EQCmenZDmXaP9gCM7Mnw15mZkY+FFs+kaAADsC/Q4tZoqsKiA4gSmzlBbUzbO3pT2nOoNc4JNcIjyeZHrbmDqtV9pyvzdab2/Ks3bN7zwc0BFanPrcvmNSff6+0FKBa9JWf74uvf5zlJzg6K6nuqx09f79IJsvDLoPWdXj/DlvJlTBbk+vi6rs3R7AQCQmLf353cVy6tOQFmSqt72lOWyP0R1d0s2VJh6WfcivbLo9Qr12u8qy0JZd7OoHi7nyK3QOVRFmf2UH6R0ANM9c9fKXVnBvV6gx+7srFx7uimbnfP2cc+lmrQ/NetcNXtCwpcKXldFbrYHCl57+qOthr0/6kqG7fcHAEacLclEzzDUS3V/YrxanvPHr3rtH5ATpG5eLMvi1uH+seH1f2/dw4zdw5BpcDh8NW7I/MQ1ocMLAICkeRPK518OzN06ihvWFg8P2/Xa36+temDIsCW33mh6gefsJbl8rvf1VgLzv66/3mPuWq976zHnS86OS/n1Ff1+NOTGbdnvRUuJQ+GrtbUhsjjTec4Xz/oCACA57lDj8yIz7lwvtczIxsWbB/76cV9Fap9eELntzc1yl6+qmNJrf59KJdn0hwVrkzJ/bklW3aFGNRSpHvewf15vPph3PTU86e5353T1+gvNAe/t7Kysdt6PGZGuvwRNg1ypVNpbW1vTm/1RgUzpHhqy+dlMRw1jdd83dSVvoLruvKTX0i134Ype81CX3agrXfy61DMsgaQd+deOAAAAiFak4euo3ookjXpf1GWWrfcFAEAU6PkCAAAwKPLwZVuvRVT3Q11m2HY/AABELZaeL1sa0Kjvg7riZct9AAAQp/wvPvsRvQoAAIC45Te+/hd6NVpJ92LEdX3qikfS1wcAwJT8X+uVOCTVoMZ9XeqKVlLXBQAgCbH/taPphtXU9agrGqavBwBA0ow8aoLgMBrqAgAgO/Km/j/gqqGNq7GN89yPQ12DS7IuAACSlv+xXwz7X4zHJ+pG15ZGnLr6Y0tdAAAkJf+1r7n/+3GjVAM8aiMcxTmiRl292VgXAABJSPR/L+Q3yMElTL/H2aLf++33OFv0e7/9HgcAwHGUaPgKk9WGm7oAAIBiXfgCAADIMsIXAACAQYQvAAAAgwhfAAAABhG+AAAADMqVSqW9tbU1vdmfQqGg1wAASI92u63XgOTQ8wUAAGBQ/pnzP6lXAQAAELf8q9vf0qsAAACI20hzvrLyNPOc/ujLbF13XtJr6Za7cEWveajLbtSVLlmvizlfsAFzvgAAAAzK/8y5D+hVAAAAxC3/jbf/Rq/aQQ2VdS9ZkNW6AADAYBIdduw3kPR7nC36vd9+jwMAANmRSPiKImjYGFayWhcAAIiO8fAVdbCwJahktS4AABAtY+FLhYm4AkWc536crNYFAADiYSR8mQoQpoNKVusCAADxiT18EYiiQQADACAbYg1fSQWGuK+b1boAAED8YgtfSQeFuK6f1boAAIAZxibcAwAAIKbwZUvvTNT3kdW6AACAOZGHL9uCQVT3k9W6AACAWQw7AgAAGBRp+LK1N2bU+8pqXQAAwDx6vgAAAAwifAEAABhE+AIAADAoJHy1pD5VkELBW+YaejcAAMfZ3bpM1Zy20V++VHdazGE1ZK42JfW7etME9/79az7m+pHWOrjGV538saU3XCH3uzUnha86IeVAXRFT16jNOVcPcPd578tUc7h3JSR8bUvpWlvabWdZX5CNma6L9mD75O9h7y+rdQEABqAa+JeX5fKnnbZxzluWzm06LabNugLL2VlZnVuV2bN6uxcLaq2UqrK4FUgfd7dkQ5qyvLUfdlp3N6R89nz/dQ2kJfUvOQHLCYBVvcfjvKeviCy578uSTNy+OlToCwlfFalU9GqxJBN6FQCA48lpiL88LxPPH2zgK8/VnBYzayyp9ey4lN/e6vS2tbaWZeLighPC/AjYkltviFwuFfV21Ioy+yknYD03rbe1rRVZfHpavxcVefGiHAiE/Tp6zlfDuUjVvwgAAMfQ3Vuy/HZVpkt6O0zXMF1wyEwNofn73WGyQ3QvS8jnerqH3ILber3ZPRSm9s/IojRl/mX/ut3nCfHYWr1zzH11yrmWHhk7UHtgtCx0f6/77XL2klyWZbnl3qsXtMZLJZl4fUWfZ1s2356QkhsQg3Uddf6Q91kNIQ4wpNrpbdOKZyek2QmE/QsNX62686aqOV8r09KuEb0AAMfcuXHxm9xWUwUP1YAHGvyXVW+RHqb79IJsvLIfcirP6f1zS1J9/frh8LN1Q+bPLelj2lI7KuSFcgLWXae9Vp//fFWat284d1SRmrqelGVBDR8+N0BbfmStSlM2zt50rqd6w1TtgSHK50Wu++EvdL8Sdr/dilI615RN95pO0HKi2KWzFZl+ekO21L4DPVDdepx/5Pc5OqHhqzi76s35ml5xQpjzhvcbCQEAyKK39+c8FctOG+kGG82djxToLTo7K9ee9oODozNBW/VEhVBDbK/PDD15W1TAKusYUpp27kQHlGEdVaurvD/cp+diub1rqsZXFr2eoF77Xf3db2felwpa50pOHBM5f9Yb5uvugTqox/nD3udSTdqfmnXPbdLRw46VmixVnS+gPnrU9vRHWw17f1mtCwDQp7Nq/vOQgUYNvXUmaK/Lwjm9P8idMN6Wm3LVDSqHhx0NGqrWqq5PL51etl77+6TnfTWcoFUteZ9bLF123tNbw833iuB97h5mPDoE9nY4fDUage6/hqwslmV88PMCAJAR3sTq+Zd7/PW/G1gWZcVvzJ3Adf113RN2d1Oa/jCeO59KrYRTvUzrF8uycbe7B+y8jHeG4ByqJ0ivRu8xtXbTte8PKWq99g/Cnfc1LzO3Rcb9yf/qvK/Py3xnvtfgDrzPA8758nrP/HlnDbnh3Nswk/4Ph6/zW3JdP+OrUJhx4vqqzJrujwMAwCLu8NvzIjPu8KFaZmTj4k39F4EVqbnzvPRr7lwn/deBpRdlwQkQk2r/lzdlIqznK/DcqMnbE3Kt3N3oFmX2maos+ud3Qt7BYcBe1BwpPfQXOtE/3NG1dvNql9uTnRq8a/XaP4iiXPp4WeScmu+ld7k1OR96zvc6wmPf5z6o3rPOe+NkpK6/Cu1XrlQq7a2trenN/qhgpnQPedn8zKmjhue67zuzdd15Sa+lW+7CFb3moS67UVe6ZL0uNZ8ZSNrRc74AAAAQqUjDl62Tv0e9r6zWBQAAzKPnCwAAwKDIw5dtvTFR3U9W6wIAAGbF0vNlSzCI+j6yWhcAADCHYUcAAACDYgtfSffOxHX9rNYFAADMiLXnK6mgEPd1s1oXAACIX+zDjqYDg6nrZbUuAAAQLyNzvghEoyF4AQCQHcYm3KsAEVeIiPPcj5PVugAAQDyMhS9f1GHClnCS1boAAEC0jIcvRQWLUcNFFOeIWlbrAgAA0UkkfPn8oBFcwvR7nC36vd9+jwMAANmRaPgKk9VAktW6AADAYKwLXwAAAFlG+AIAADCI8AUAAGAQ4QsAAMAgwhcAAIBBuVKptLe2tqY3+1MoFPQaAADp0W639RqQHHq+AAAADCJ8AQAAGET4AgAAMGikOV9ZeUp7Tn/07d15Sa+lW+7CFb3moS67UVe6UFe6+HUx5ws2oOcLAADAIMIXAACAQdaFLzUE2L0AAABkRaLhq9+g1e9xAAAAtkskfEURoAhhAAAgjYyHr6gDEwEMAACkibHwFWdPVZznBgAAiJKR8GUqGBHAAACA7WIPX6YDEQEMAADYLNbwlVQQIoABAABbxRa+kg5ABDAAAGAjYxPuAQAAEFP4sqXXid4vAABgm8jDl22BhwAGAABswrAjAACAQZGGL1t7mej9AgAAtqDnCwCA46JVlzOFgjw519A7GnJabRfmZEzviUyrISfr/nUQRPgCAADRUiFvckZObeptHED4AgAAMOjI8NWqT0lhqi4tvQ0AALLkvDwqOx/K4/LI2wEDjghfDbkx39Trj2f7pHYm3QMAbJavT+m5Vw05PaXmYem5WIEekHyjHnjNWaam5HSjRxdJS51HndM79sxcI6TRL8ruhPNhoiS73g5XvjEnZ4LXKTjXqYd9/mFuHZPzckJtLM5416579zg2553rZPctH5qLdvT7sX+elpyc26/xyak5Odnr/bBIz/exVb8usrAgKhADAAAzxuZmZMzv+1A9UkVvVYWRJ2bm919Tmk0Zm5l0g9UBes7VmPO674QThE7fODwJa6fWlnu1it7yr7MoJw70vzjXmZ+RJ6bqfQWwKPV6P9Q9nZqclFOLgRttLsqpmauHw51lwt9D5x/t6uY1qV3S2wAAwIBFGVssy4N1JxC1nWV11uuRaszJE2o0qlyV++vr3mtqWV+SnbIOVp381ZKTV72ep0fVJXlHH/vOUtU5vROqvIN6aMgpd9QrcA/6Og9Ub0xz+UBPXJjd2VXn+AVvGNO5vvr8d2c7iWlAPd6PDue1Jf/9WPfuUYWyG3b/lWVI+GpJ/eqyXH5xPwUDAAAzHi3clIddWWVsZdH5rxM0btZkpxh4sViR+6tOAHNWx1Z04Gjd8nqKygtyv1bphJXdSk3uLwwwnrUdSFnOdR6uqoCzeuje4hb2fvjc1yr+i0V5eM0JmClwKHy16ldl+fJNGTqkAgCAoe2WuhvgluQ31Ec1zObPfQouM94zuja2vEZ9e9Pr3eqax6XsXrr8mIn1Fdlx84tzrZlJ7/xqXpma75XQUN7h98NXlp1LXa+dT8cfDnSFL2+SfXN+UgrOG16YnJdmc14m+/iLxz390Va23x8AAOG2u+Zf9dDUoUt7NH5erw1mp7Yu96uBHjI1r0zN91LBbyqGh7EeQ13hqyK1dlva/rK+IOXygqyvzgodYQAAJEE/DkKqct+d29RrqbnDj74Tm9t6bVBFJ4Ctuud8R831qlb19R3NRTndPbkfAwuZ8wUAAOyhHwehJp/3k3v8oTd/GDIgf2v5MRPuD9pVc71qNXlXzfdaX/DCXch5B9OUE125cND7Sruj37/irKzS6wUAQKJ2pr2J5GMz3c/1asmY+zyswv4zspy2+6E6vDkvTwSe7eU+I+xxz+/0n7elhhe75hvltzeHGHI8GNQejXtdaGPX9x9Z0dd9Zcxo4RUAAMRP/aWiOw/Le67X/mT7SR1cqu5fNvp2XtSPelickSf0seoZYaKGEN0jeugEt0U53TW5Xz37y/uLy+7HPRxh0QmAzuf6D1ntTPhXwbBz3j7uK2MiDV+2Tmpnsj0AIO3UPCz1rK7O/CtXWT/L6+B8LxWi3nXna+0frI5798VxvdWbeujq4euoz1+Q++t9PmrCuf79hf1A1Zl/5t7XgvtsMk9ZdhbW+7qvLMmVSqW9tbU1vdkf9ZeQSliosfF/4/O48NV9z3t3XtJr6Za7cEWveajLbtSVLtSVLn5d6o/JgKRFPuxoWy8TvV4AAMAmscz5siXwELwAAIBtmHAPAABgUGzhK+leJ3q9AACAjWLt+UoqABG8AACArWIfdjQdhAheAADAZkbmfJkKRAQvAABgO2MT7lUwiiscxXluAACAKBkLX76oQxKhCwAApInx8KVE0VMVxTkAAABMSyR8+fwAFVzC9HscAACA7RINX2EIWgAAIMusC18AAABZRvgCAAAwiPAFAABgEOELAADAIMIXAACAQblSqbS3tramN/tTKBT0GgAA6dFut/UakBx6vgAAAAwifAEAABhE+AIAADBopDlfe3decj+mXe7CFb3moS67UVe6UFe6dNcln9cf007XwZwv2ICeLwAAAIMIXwAAAAYRvgAAZqkhwO4FOEYIXwCA+IQErb29vUNL2HFAVhG+AADR0wEqNGiFCD2OEIaMInwBAKIVCF2jOBDCgAwhfAEAoqF7qkYNXd06AYwQhowgfAEARqdDV9TBy9c5NwEMGUD4AgCMJoberl4IYMgCwhcAYHgGg5ePAIa0I3wBAIaTQPDyEcCQZoQvAAAAgwhfAIDBJdjr5aP3C2lF+AIADMaC4OUjgCGNCF8AAAAGEb4AAP2zqNfLR+8X0obwBQAAYBDhCwAAwCDCFwAAgEGh4atVn5JCoaCXOWno/QAAABhNaPja3mxKdakt7bZaalLR+wEAx5iFk+19TLpHmvQYdizL+Hm9CgAAgMiEhK+WbG00ZX7SG3acqrf0fgAAAIwqJHwVZXbVH3Jckon5q0L+AgAAiEaPYUdfRaarTVm+RfoCAACIwmPCl2eiVNRrAIBj6/MiuVxOb9jFvS8m3CMljg5frbpcX2TyPQAAQFRCwldD5vxnfE3Oy8TSqszS8QUAABCJkPBVkZo72d5bajzkCwAAIDJ9zfkCAABANAhfAID+WTjpnsn2SBvCFwAAgEGELwDAYCzq/aLXC2lE+AIADM6CAEbwQloRvgAAAAwifAEAhpNg7xe9XkgzwhcAYHgJBDCCF9KO8AUAGI3BAEbwQhYQvgAAo9MBLK4Q1jk3wQsZQPgCAERDBaMYesE6oYvghYwgfAEAoqUD2KghrHMOQhcyhvAFAIie7qnyA1RwCRN6nD4HkDWELwBAfPwAFViODFrBBcgowhcAwCyCFo45whcAAIBBhC8AAACDCF8AAAAGEb4AAAAMInwBAAAYlCuVSntra2t6sz+FQkGvAQCQHu12W68ByaHnCwAAwCDCFwAAgEGELwAAAINGmvO1d+cl92Pa5S5c0Wse6rIbdaXLcakrM09p764jY3Ux5ws2oOcLAADAIMIXAACAQYQvALCVGirrXrIgq3UBfSJ8AYANQgLJ3t7eoSXsOKuF3G8m6gJGQPgCgCTpoBEaSEKEHmdjWMlqXUAECF8AkJRAOBnFgbBig6zWBUSE8AUApqkwoQNKlDpBJamwktW6gIgRvgDAJB1Oog4ovs65TQeVrNYFxIDwBQCm6IBigtGgktW6gJgQvgDABIMBxWckqGS1LiBGhC8AiFsCAcUXa1DJal1AzAhfAAAABhG+ACBOCfYO+WLpJcpqXYABhC8AiIsFAcUXaVDJal2AIYQvAAAAgwhfABAHi3qHfJH0EmW1LsAgwhcAAIBBhC8AAACDCF8AAAAG9QxfjbmCFApqmZJ6S+8EAADASELDlwpe18fXpd1uO8uqzBb1CwCAx7NwUrpvpMnpWa0LMCwkfDVkZWNBbpK4AAAAInc4fDVWZHFiU264Q47OMlUXRh0BAACiET7na3FDxtfVkGNblibm5SqTvgAAACKR/5lzH9CrAdVrnXlelemqNDe3vQ0AAACMJP+Nt/9GrwIAIvF5kVwupzfs4t7XCBPuM1kXYNjhYcfKtFQXr+vHS7Skfn1RqtMV9yUAAACMJmTOV0Vq65dleVJNuJ+U+YklqZG9AAAAIhE+4b44K6vuM76cheQFAAAQmfDwBQAAgFgQvgAgDhZOTo9kUnpW6wIMInwBAAAYRPgCgLhY1EsUae9QVusCDCF8AUCcLAgqsQSUrNYFGED4AgAAMIjwBQBxS7CXKNbeoazWBcSM8AUAJiQQVIwElKzWBcSI8AUAphgMKkYDSlbrAmJC+AIAk3RQiSusdM5tOqBktS4gBoQvADBNBQgdVqLUCSdJBZSs1gVEjPAFAEnRQWXUsNI5hy3hJKt1AREhfAFAklSwCISV4BIm9Dh9DqtktS4gAoQvALCBHzQCy5GBJLjYLOR+M1EXMALCFwDYKquBJKt1AX0ifAEAABhE+AIAADCI8AUAAGAQ4QsAAMAgwhcAAIBBuVKptLe2tqY3+1MoFPQaAADp0W639RqQHHq+AAAADCJ8AQAAGET4AgAAMGikOV97d15yP6Zd7sIVveahLrtRV7p015WZp5l310FddtN1MOcLNqDnCwAAwCDCFwAAgEGELwDpp4aUupcsoC4gk5jz5WAOUbpQV7pEPucr5PP39vb02r5cLqfXAqJs5LvPRV3hLKuLOV+wAT1fANJBNZ7Oohru7iVM6HH6HFahLlfocTbWBUSA8AXAfoFGfBQHGnUbUNeRrKsLiAjhC4C9VKOrG/IodRr0pBp16hpI4nUBESN8AbCTbsSjbsh9nXObbtCpayiJ1QXEgPAFwD66ITfBaINOXSMzWhcQE8IXALsYbMh9Rhp06oqMkbqAGBG+ANgjgYbcF2uDTl2Ri7UuIGaELwAAAIMIXwDskGAvii+W3hTqik0sdQEGEL4AJM+ChtwXaYNOXbGLtC7AEMIXAACAQYQvAMmyqBfFF0lvCnUZE0ldgEGELwAAAIMIXwAAAAYRvgAAAAw6FL5a9SkpFApdy5w09OsAAAAY3qHwVZxdlXa73VnWF8pSXnhRKvp1AIiMhZO3fSNN4qYu40aqCzDsMcOODbkxPyHXZot6GwAAAKM4Onw1VmSDXi8AAIDIHBG+WlK/viGXL9HrBQAAEJXe4at1S5YnrgkjjgAAANHpGb5at5ZlYpoBRwAx+rxILpfTG3Zx72uEienUZdZIdQGG9QhfLXGyl4yf15sAAACIRI/wtS2bzQkpMeQIAAAQqR7hqyK1do2/cgQAAIhY7wn3AAAAiBzhC0CyLJzEHcnkbeoyJpK6AIMIXwAAAAYRvgAkz6LelEh7UagrdpHWBRhC+AJgBwsa9FgacuqKTSx1AQYQvgAAAAwifAGwR4K9KbH2olBX5GKtC4gZ4QuAXRJo0I005NQVGSN1ATEifAGwj8EG3WhDTl0jM1oXEBPCFwA76QY9rka9c27TDTl1DSWxuoAYEL4A2Es1tLpRj1KnEU+qIaeugSReFxAxwhcA++kGfdRGvXMOWxpx6jqSdXUBESF8AUgH1QAHGvXgEib0OH0Oq1CXK/Q4G+sCIpArlUp7a2trerM/hULB/bh35yX3Y9rlLlzRax7qsht1pUt3XbE0pmHnjLvR7j4/dfUvwbra7ba3AiSIni8A6aca1u4lC6gLyCTCFwAAgEGELwAAAIMIXwAAAAYRvgAAAAwifAEAABg00qMmAABIEx41ARvQ8wUAAGAQ4QsAAMAgwhcAAIBB/O+FHPzvatKF/w1PynTXQV12y3hdzPmCDej5AgAAMIjwBQAAYBDhCzhO1NBL95IF1JUuWa0L6BNzvhzMjUoX5nz1KeTz9/b29Nq+XC6n1wKibAy7z0Vd4ahLrwXEUBdzvmADer6ArFGNjLOoBq57CRN6nD6HVajLFXocdQGpQvgCsiTQ2I3iQONnA+o6EnUB6UL4ArJANU66wYtSp+FLqvGjroFQF5AOhC8g7XRjF3WD5+uc23TDR11DoS7AfoQvIM10g2eC0YaPukZGXYC9CF9AWhls8HxGGj7qigx1AXYifAFplECD54u14aOuyFEXYB/CFwAAgEGELyBtEuxt8MXS60BdsaEuwC6ELyBNLGjwfJE2fNQVO+oC7EH4AgAAMIjwBaSFRb0Nvkh6HajLGOoC7ED4AgAAMIjwBQAAYBDhCwAAwKDw8NWYk0Kh4C5T9ZbeCQAAgFGFhK+GzM1syMJ6W9rtJZmYvyrkLyBhFk5y9o002Zm6jKMuIHmHw1drSzbKl+VSUW1UZLralM1t9xUAAACM6HD4Kl6Sy7Ist9zeroasLFZluuK+AgAAgBGFDDsWZfamE78m1ZyvGZGlmpC9AAAAohEy7FiXqasiN9tqzldbplcKMtfQrwEAAGAkh8JX69ayyOVL4k75clSmq7K4QvoCEvV5kVwupzfs4t7XCBO4qcss6gKSdyh8FUsT0ly+Jf4fODZWFqU8fl5vAQAAYBSHhx0rNVm/vCyT+jlfM7Ikq7N+PxgAAABGETLhXqQ4u+rO93KXGtPtAQAAohIavgAAABAPwheQFhZOdo5kkjN1GUNdgB0IXwAAAAYRvoA0sajXIdLeBuqKHXUB9iB8AWljQcMXS4NHXbGhLsAuhC8AAACDCF9AGiXY6xBrbwN1RY66APsQvoC0SqDhM9LgUVdkqAuwE+ELSDODDZ/RBo+6RkZdgL0IX0Da6YYvrsavc27TDR51DYW6APsRvoAsUA2Sbvyi1GnskmrwqGsg1AWkA+ELyBLd8I3a+HXOYUtjR11Hoi4gXQhfQNaohirQ+AWXMKHH6XNYhbpcocdRF5AquVKptLe2tqY3+1MoFNyPe3decj+mXe7CFb3moS67HZe6Yml0ws4Zd+PWfX7q6h91RUefv91ueytAguj5Ao4T1QB1L1lAXemS1bqAPhG+AAAADCJ8AQAAGET4AgAAMIjwBQAAYBDhCwAAwKCRHjUBAECa8KgJ2ICeLwAAAIPcni+9PrJTFy5J8f33pPX1V+WB3nfA+V+QiR87JXf//JZ896+c7Q89Ix/78XPyd3/5iry17R3iKcqPPDshT/zthrx5p6X36fN/YExvBb0j3/naH0vfv8+4131S3vHvI8i9RzlwvsInn5cPy1/Ixtpr+9tnnJWdt71aD5zPu/ezzm2+p+vy7vtB3/f4wZ+4KE+fPaG3Anbuyuuv/m/5nt4cyan3yzMfKYi6ynt/9Rfyv+6J/KN/+BH5UefsX/8/3++8/kC/JvJD8lMf/6Ccan9HXv3rv3e2f0Amih+Wp/5OH+/44A//A/n4mffkjdbfRnOPAAAYoEb0zPWKivx/wVmxzQz2H7cAAAAASUVORK5CYII=;" vertex="1" parent="1">
          <mxGeometry x="280" y="80" width="607" height="485" as="geometry" />
        </mxCell>
        <mxCell id="5DEDQGz0tck6MsNurVrF-2" value="Score Display" style="shape=curlyBracket;whiteSpace=wrap;html=1;rounded=1;flipH=1;labelPosition=right;verticalLabelPosition=middle;align=left;verticalAlign=middle;" vertex="1" parent="1">
          <mxGeometry x="900" y="115" width="20" height="158" as="geometry" />
        </mxCell>
        <mxCell id="5DEDQGz0tck6MsNurVrF-4" value="Player&#39;s turn" style="shape=curlyBracket;whiteSpace=wrap;html=1;rounded=1;flipH=1;labelPosition=right;verticalLabelPosition=middle;align=left;verticalAlign=middle;" vertex="1" parent="1">
          <mxGeometry x="894" y="298" width="20" height="55" as="geometry" />
        </mxCell>
        <mxCell id="5DEDQGz0tck6MsNurVrF-5" value="" style="shape=curlyBracket;whiteSpace=wrap;html=1;rounded=1;flipH=1;labelPosition=center;verticalLabelPosition=middle;align=center;verticalAlign=middle;rotation=90;horizontal=0;size=0.5;labelBackgroundColor=none;" vertex="1" parent="1">
          <mxGeometry x="495.5" y="373.5" width="29" height="431" as="geometry" />
        </mxCell>
        <mxCell id="5DEDQGz0tck6MsNurVrF-7" value="Game Board" style="text;html=1;align=center;verticalAlign=middle;resizable=0;points=[];autosize=1;strokeColor=none;fillColor=none;" vertex="1" parent="1">
          <mxGeometry x="469" y="601" width="86" height="26" as="geometry" />
        </mxCell>
        <mxCell id="5DEDQGz0tck6MsNurVrF-8" value="" style="shape=image;verticalLabelPosition=bottom;labelBackgroundColor=default;verticalAlign=top;aspect=fixed;imageAspect=0;image=data:image/png,iVBORw0KGgoAAAANSUhEUgAAAmEAAAHjCAYAAABrZcgFAAAAAXNSR0IArs4c6QAAAARnQU1BAACxjwv8YQUAAAAJcEhZcwAADsMAAA7DAcdvqGQAADMDSURBVHhe7d1/bBzpfd/x70pgpAp3uLVybv5o0QIUE/oYq0HpZJPctUYKZKmzeX9YqWk1qHGhk8pHpjlljUQJCBe2UBhlCyHpWga6coQAzMEN2hAI+4d5trgoaiCpgm5strAC9mhTixhFcQV8UPbgqyKVENnnmX1mOTucJffHzDzPDN8vYI6zs8OZ+e5SfD58nmfnCvuKAAAAIBW/XqnIr/7zX5NT5jEAAABS8vTpU0IYAABA2ghhAAAAFhDCAAAALNjb2yOEAQAApC22ELa+vi6/8PGPy7XP/KbZAgAAgF70zSlGCmEPHz6UT3/60/Kv/vUX5JXfXJFv//dvmmcAAADQy8g9Yb/xG78hP/PLvyu/crMu/+Eb/0fe9773mWcAAADQy0g9YZ/61KfkH772JW/9i19a8b6OjY3J97//fW8dAACcLIVCoa/FNfqavvWtb5lHh+nn4r7uoUPYX//1X8vOzra3/i9/qyI/cvFl2f/2l+X06dPy/ve/39t+tK/Ja4WX5Is75mFHr+1B/ewDAABs0OHiqMVF3/zmN+VnX/oHkUFMb9PP6X3iNPRw5GuvvSafurnhrX/vT37f+/pX3/kvcuvWLW8dAAAgKz70oQ/Jn/3XPz0UxPwApp/T+8RJB9KBQ9iDBw/k/v1ve+u/8rPPSnn5u976xMREn71gAAAAbgkHsSQDmDZUCKvVavJ67U/No7b/+9/+rTx+/Ng8is/XXguMIb/2NbM1yAxNfu2L8pLZT++288WXOt/3UmDc8vjjAQCAkyoYxJIMYL6BQ9j3vvc976vfC7a/tye7//vP5Y//+I+97f27J5UfDYQib/mo/J55VvvIl/0x5Dfl07/3hR7zwNRxviDyB3q/Nz8tv/fRgvyS/EH7+9Tje5WbKqq19Xc8AADs624fey/IroFDmJ58H/TuvaqUy2U5dWrQQ70o1e/6oSgQjsyznq+9Zn7IusNZN3WcP/h1mdCrH/mY+v4X5ROz3iPz+C/kO37Y6ut4AADY190+9l4Qn+AQZHBoMilDhbBf/plnzCORH2p9W77whS+YRzHa+aK89FGRN70fsu9K9UWzfVhxHw8AAORGeA5YeI5YEgYOYX/5l38pn/yVf+at//m/Kcnv/M7vJNMd+t0tuffilPyoXt9Zlz+6520dXtzHAwAAudBrEn7SQWzgEHb79m35i2+175Xx27/9W/LTP/3T3nrsPnJdqlKRH9XDh7+0JR8ctecq7uMBAIBD/LlqvRYX/eRP/uShAObzg5jeJ26F/SEGlN99910pFouMRQMAAAzo1ysV+fjcJwbvCdPOnj1r1gAAADCMoULYmTNn5A//8A/NIwAAAAxqqBCm/eIv/qJZAwAAwKCGDmEAAAAYHiEMAADAAkIYAACABYQwAAAACwhhAAAAFhDCAAAALCCEAQAAWFBotVr8v4cAAABS8rnPf374/20RAAAARkMIAwAAsIAQBgAAYAEhDAAAwAJCGAAAgAWEsFTUpVKckVrTPETG8P5lRr0ixWJRijM14e1yFf+eRlOXc+pn/LnAcq5unuqbPsaMnIl6D9S/oYNjV2TMbLYicC3P5PQHhhAGICdU4z63IvOrLWltLMq42QrkT0keb7bk3ZZaVudlbC6msNSsyTNzIo/0cfWyOSmnBg54cVFBsXMtq7K3tBAdGjOOEAYgR0oyecGsAidBeVZ2ZUtOxRFQHmzL6dKkPDUPZXxRnpTNetrq6zI2r2vTyvJ4WWTsbv5SmJMhrF4ptocU9FKxFsPj96AmM6aumVx1rTalNnPwnuXiLVN/ER68VztmY04EaisWK+rvzTzQQ1xzsiINWZrO0b+vrp/DWr6G8XL7+zBlOqyULsuu3/Wre7PUa3poODGw/Zlev9N0oGssybnI96MpZ9TveX94sDME2nW+4NBoe8jzXGVGbTfXEXVteshxpnYojJza2ZKngb+o9iam5PT2A/MoP5wMYeVqS1otvazK/MrNnPzSUY3DTZHbuq5NFemXFnJSlw5g07J2edO8Zy2p2vrLKTaqQZ9ekik9rKXquS1rqnHPC13bmlzeNP/GVkVu5uIHsSxV/ftCSrKsattYzMNgZJ5/DgO/D1fnpbF0S1WL/jXkrPpjwwsz67Py7sai7HnbVfBR/753O0OVIme8f996+5LsqZ8lvf2R+lmKHr4sy6PWpuyuTYcClQ5g0zKmfs97x9XH8H7Pdx/3XdW2nZoLzjVryKnJ2+q5quz2vLaTzc3hSH9yrfeXbV6oxuG2macyvijX5xuSi1DfvCtrjXm5notGz2juyFZpWa6ZMDm+eF017jmhazO9Rd6/sbkVaeTwr8tcyPPPYfD3YXlW1bUlO7THAzBzwlToebqyHujt2lGNeiCgqX/fXu+R3q5+lh6bn6U99bPUHuaLMi5PNvxAZYKY+j0/pn7PPwn/nvfONy+7/h/eevhStW2nO79SSrJ7yXxPr2srVwMh8uRxL4Tp7vc5kVWVlFsqkS+XzPZcacrOllkFUjdv/n2ZJftdl8DJpELPo+WtUI/S/MHEer0M++/bO3ZJxtbj7KPs/9rCw4/h4cm8cC+EPdiWRmlSvJfa62XxtuZAQ9b8SYWm92g2D23f+CW5XFrJyZCWMT4hU40luWV+9zRrN/PTI6trU9Xk6v3Kqzz/HCI2uler88lB9TOzp35KDg3z6e3qZ+ms+Vk6pX6WIocj67XAUGJTxlQD7AUf9Xt+V/2ejzyuOt+Yn9Oa6vtXAj1jQb2urcecMLkwGejlq8vZJTnoVcsR90JY+Zosy5JM66GShW2Zyk1PWEmmthfaQ0DePI+q5KP/YVwWN1ZlamnaDCHnYWJ+Waqr87Iy165nQS6rv9/yQtXmzUk8eL9y9eGXXMnzzyHi0/7k4NkFHWTK8sj8+25PfleL9+9bbfduZdHedk79LEUOR5Yn5LQ/XFiclrNTq/KeNwSphyj1bSIOjtueL9Y+nx629LZ7c770/K8ova6th/FFeW9VzD3R9PDYhjzJXwaTQqvV2jfrAABX6aka09tyvZWXP+CAk+tzn/+8fHzuEw72hAEADqnfWjqYqgEgFwhhAOCk7vvvza3Myyr/JwAgVwhhAOAkPd8y8ClWhiGB3CGEAQAAWEAIAwAAsGDgT0fquQkAAGSNHtYFXMCnIwEAACwauicsLzcXK5ivPupy24mp6/4ds5ZthYtXzVobdbkt73XREwZX0BMGAABgESEMAADAAqdCmB6SCS95QF3Zkte6AABusRbC+m3o+t3PFf1eb7/7uaLf6+13P1f0e7397gcAQL9SD2FxNGAuNoLU1Rt1AQBw4OnTfXny/56mG8LibrBcaQCpqz/UBQDAgVRCmG6kkmqokjz2cahrcNQFAEBb4iEsrYYp7QaQukZDXQCAky7REEZDGw/qGk1e6wIAZFtiIcxWQ5T0eakrXtQFADipEglhthugpM5PXcmgLgDASZTKxHwAAAAY5q/02EOYK3/9x30d1JUs6gIAnBj77S+xhjDXGpy4roe60kFdAICThOFIAAAAC2ILYa7+tT/qdVFXuqgLAHBS0BMGAABgASEMAADAAkIYAACABdEhrF6RYrEidfMQAACENGvyTLEoz/nLTG2Eno26nCvOyJmmeZgG7/r9c/Y6v94eqFEt5wYOB9HHHquEjxWxn8ojz1XUTl3XGjN9DpV5xsxDj7etXe8ztSRO2hb6eWlKbaYoxXWRebOlH65POh72+qjLDuoC4DwdCqbXZHezJe+22sujqW05bZ52UyjkjC/Ke60NeTJuHvdUksd+navzMjYXCixD2p1Vx1oPpLDmjgolDRm7exB6Tu1sydPJCwNc6yCackZlnudU5tk1W9rU6zQn8sh7X1dlb2khmfCnhELYuCxutKRVnTWPAQBAN9V4LyzJ3mp3KNitVkONeQ6VZ1WNW3IqjlByYVKebung1Xbq7prsLS+LbD8wW5oytqZe10uxJq+AcXmiMs+74cxTX5exeV2nVpbH6pKCwTBOw/ecAgBwEjXvylhjXnbL5nGU0FBlcNhND8P5272htkNMD03E97aFh+2Cj816LTycprfPyZg05Oy0f97wcfqgA0rpsuz6uairzkAPWWD7M7UdszFk/JIKOmsy5p2/HbieXpqQvRV1Dm+HB3K6MSV73rn6qVGLeO300OIAQ8Wd3jdjb2JKTneCYbwIYQAADKo0KU/N6qnajGn0AyFhWveUmSG8zWU5NXcQdnarZntrVXZXbh4OQfVbcnZq1ezTkkdHhb1IKmhtz7a/f3VeTi/dUqGmLI/0+fyhxeogBzXBTde4ro67sSh73nZdZ2BIdlVUMNLFdNf/SActb/+wcdmbashpL9+owCU63JVld970tHX1SIVF1aiM/NqlixAGAMCgGgfzv/YWN1SDrwOO4c1tCvSUjS/Kk3k/bCidSd+6ZyqCHqZbmRthQrgKWtfMyWMZPjTBTYXJp51eKsXM4eoEtLmVdo+R3l5alsfmEvYWr/cIUoF5YTpwTU144e7pZHv4L9wj1a1HjVGvXbkaCI5uiSWEmf8PpbOGvT7qsoO6ADhtXIeFIYONHqbrTPrelMclsz3Im4Sue5AWvHAz+KcRE6Ku69Hylunt8s2bWswyUA+bYuaFjanAtTvb/t69S5dFtu8ONx8shtcuPPx4dBgcDT1hAAAMpD1Z++x0j08JeiFtRcb8AKCC15kV0zP2YFtO+0OZ3twyvRJN97D9YLmkQkA47V2Qp6Vgz1qgdyphuler82lBU2d3KFP09saSnDX1n6rd7H193rywJTm3JPLUzzn6+1fU93fmgw2u67UbcE5YuzfNf03rclZdW1IfDiCEAQAwIG8IclXk4B5ac3Jq+bb5tGRZHnnzwMxz3rwp88nJ8jV5rELHs3r7wrbsRfWEBe5R9ezSlDxZDAeAcXlyXd8qwhz/0C0WetHzrYIT84dhAuiCDjXtOmVpunO97eOq7d6tLNrbzum5Xu1vjjAuu5fVixCc7O9dp/rScz7YEY597fqge9M67+2cSOhTsHEqtFqtgUZJiuqitPA3uXwPpKMKDF83ddlHXWrf+3fMWrYVLl41a23U5ba816XaO+8rYNtn/8Xn5GO/8HF6wgAAAGyILYQd9Ve+TaNeF3Wli7oAACcFPWEAAAAWxBrCXPtrP67roa50UBcA4CSJvSfMlQYn7uugrmRRFwDgpGE4EgAAwIJEQpjtv/6TOj91JYO6AAAnUWI9YbYaoKTPS13xoi4AwIljbg6Z6HBk2g1RWuejrnhQFwDgRDINReJzwmhoR0Nd8chrXQCA7EplYr5umJJqnJI89nGoa3DUBQBAWyohzBd3I+VKo0dd/aEuAAAOpBrCNN1gjdpoxXGMuFFXb9QFAMBhqYcwn9+ABZco/e7nin6vt9/9XNHv9fa7nyv6vd5+9wMAoF/WQliUvDZ01JUtea0LAOAWp0IYAABA3p0+XZAzP3SaEAYAAGADIQwAAMACQhgAAIAFhDAAAAALCq1Wa6APfxWLRbMGAEB2qPbOrAF2fe7zn5ePz32CnjAAAAAbCGEAAAAWEMIAAAAsGHpOWF7uIl4wX33U5bZDdd2/Y9ayrXDxqllroy63UVe2+HUxJwyuYE4YAACARYSwNOhuqPACAABONKdCmB5qCi+Z02/gitpPLxmSi/cLAABLrIWwfhvwfvezLq4Q5WgQ6/d96Hc/AABOutRDWBwNs1ONex/hq6AuNrwcKa5AFwN9qcdd7nHiOAYAAHmTagiLuyG23rBHBKV+A1df+1kOYlGXNIq4jwcAQJalEsJ045tUA5zksXvq0VMVGaQG0DOIpRzGknxNkzw2AABZkngIS6vBTa1h7xG+Rg1gvp7HSimIpfU6pnUeAABclWgIS7uhTfx8CfR+9WIjiOXu/QIAwGGJhTBbDWxa5+3ZYxWjNM7hS+t1C7N1XgAAbEskhNluWBM5f8rzsnpK4Dpy+X4BAOC4VCbmZ14o+KTVO+U7dD5XAiEAABha7CHMlV6NpK4j7QDmS+q8eX+/AABwVawhzLWGNJbrcbXXKYbryuX7BQCA4+7f/7Z8+cv/juHIQdjqBfPZPj8AABjdT/y9n5Bf+9Vfiy+EuZoPRrou1+dejXB9uXy/AADIEHrC+uRKLxS9YQAA5AMhDIhQuHi1swAAkARCGBAQFbwIYwCAJBwKYfVKUYrF9jJTa5qtQP4dF7QIYgCseFiTmapql/3lKzVJvXXeqRycv1qRutlsReBaZhrZzindIaxZk53ZlrRaelmVqaUF6SeHuT5NaajrC0x6z9s8rFy+XwCQRzqAvbEml19V7XKlvaw+vy0PzNOp0NfwVZFVc/7Wq5Oys2OeS11dKp1rUTnlnsopD81TGdQdwsYXZbFs1uWCTJbMKpzSFQpd/wRnRvTby0VvGID0NKX25pJMvbIhi+fNJqX8clU6TXUaHm5L4/lJlQqM8yorTJj1tO2sy8oHZk39Zbn2osjaTnZ7w46YE/ZAthtTMjFuHgIAgPQ8vCtr78zLbM/AU5dKdUYqX585GCLsGroMDBtGbm9/f61xzPDexKzMv7MkC5FDfyoofsU/blEqfg9ZaAi1s73fa9ZDjhHDrs2HW1I634mDMn5+ShoPU+0XjFXPEFavzMnW8rV00zYAADgQ6IFqNnRw0UFFBafOEFxDts7fllZF946pgBMcunxF5KYXnHpt1xqy9HDWbJ+Xxr1b7RDUpSzVyqZc/s60d/6DQKUD2LSs/dhm+/vVUvUCoz6f7sEz53t1Wba+Oug1nwwRIUy9qDNFuTm5KRuLdIPhZNi/f8esHa3f/QAgFu8czP8aL22ooLIq8+ZxW0ku+0NWD3dkS4eqN0yv0ldX2r1EvbZ7SrJcMt0tusdL7bkTOcdqXBY/6QcqE8RMT931UigreOcL9OCdX5TrH2jIdue4fVzzRFVan1xUZ823UAjTAWxB5HZroACWyxvLB+Zd7TtWYNf1DDGLPZfvFwDkzfkJmeoZinqZP5hAr5eX/fGsXtsHpALV7RdLsrJzuL9seP1fW3j4MTw8mTXdIax+S5amrgsdYDiJjuvlohcMQLraE8+X3gjM7TqKF9pWDg/n9drer51aYCixKXe/02gHn/OX5PLzvc+3HpgfdvOtHnPbel1bjzlhcn5SSm+tm9ejLrfuyUGvWgZ1hbDmzpbIylznPmHcKwwnjQ5a4bAVtQ0A0uANQb4iMufNBdPLnGy9eLvr05IHylJ9dVnkXnvulrd8XceVXtv7NDEh2/5wYXValp5flQ1vCFIPUerbRBwctz1frH0+PWzpbffmfPX6ROeA13Z+UTY6r8ecSOiTo1lTaLVaA43+6GCmhb/J5Xs7HVVg+Lq79g08cOleYf0MRx5Zl5Kb9ysn4Sh86wvqcht1ZYtfl74HJuCC119/XT784Q/3/nQkFJeTiub69QEAgEPed/68TL4wFV8IO6r3wqa4rsuVyflxXUfe3y8AAFxHT9gAbAcxV4IgAAAYXawhzLWMEMv1uDrkF8N15fL9AgAgI2LvCXOlIU3qOmz1RiV13ry/XwAAuIrhyH6Eep3SDmKHzseEfAAAMi+REGa7VyOR87sSfBK4jly+XwAAOC6xnjBbDWta59W9U0n3iKVxDl9ar1uYrfMCAGBbosORaTewiZ8vohcqqZAUedyEe+Ny934BAOCgv3r4ULb/51byc8LSamhTa9B7BLG4wljPY6U0HJrW65jWeQAAcM0P//APywc/+MF0JubrBjepRjfJY/ekA1ECvWI9w1dKAcyX5Gua5LEBAMiSVEKYL+7G13pj3iOIhZcofe2XcvgKi7qkUcR9PAAAsizVEKbphnjUxjiOY8Smj56qvgJXUB/HTIu+1OMu9zhxHAMAgLxJPYT5/IY5uETpdz/r4ghODoWvsH7fh373AwDgpLMWwqLkogH3g1RwidLvfg7LxfsFAIAlToWw3MpB4AIAAPEihAEAAFhACAMAALCAEAYAAGABIQwAAMCCQqvVGuhDbcVi0awBAJAdqr0za4BdN27ckCtXrtATBgAAYAMhDAAAwAJCGAAAgAVDzwnLy93Rw/dNzW1d9++YtWwrXLxq1tqoy23UlS15r4s5YXAFc8IAAAAsIoQBAABY4FQIC/6vFf0lD/JaFwAAGJ61ENZvMOl3P1f0e7397gcAAPIp9RAWR+BwMbTktS4AAJCMVENY3AHDlcCS17oAAEByUglhOlQkFSySPPZx8loXAABIXuIhLK0gkXZgyWtdAAAgHYmGMIJRPAhiAADkT2IhzFZwSPq8ea0LAACkK5EQZjswJHX+vNYFAADSl8rEfAAAAHSLPYS50lsT93XktS4AAGBHrCHMtYAQ1/XktS4AAGAPw5EAAAAWxBbCXO2dGfW68loXAACwi54wAAAACwhhGEnh4tXOAgAA+kcIw1CighdhDACA/oVCWFNqM0UpFttLpW42AwHHBS2CGIDceViTmapqG/3lKzXVYg6rLpXqjNQemodp8K7fP+cx54+11sHVv67yx4554Im43p2KFL+uQkpXXTHT56hW1NkDvG3t12WmMfqrEgphD2TiektaLbVsLsvWXOjkPbg+SXzY68trXQCAAeiG/o01ufyqahsr7WX1+W3VYrosFFzOL8pGZUMWz5vHvThQa3liXlZ2Aunj4Y5sSUPWdg5CT/PhlpTOX+i/roE0pfYVFbRUEJw3W9rUa/pVkVXvdVmVqXsLI4e/UAgrS7lsVscnZMqsAr5+e7noDQOQD6pBfnNJpl7pbujLL1dVi5k3jtR6flJK7+x0et+aO2sy9eKyCmN+FGzK3e+IXJ4YN4/jNi6Ln1RB6+VZ89jYWZeVD8ya16Is116UrmA4jN5zwurqZPP+yQAAOIEe3pW1d+ZldsI8jhIavgsOpemhNX+7N3x2iOl1ifjetvBQXPCxWW+Eh8j09jlZkYYsveGfN3ycCMfW2j5G5esz6lxmpKyr9sDoWeT2Xtcbcv6SXJY1uetdaztwTU5MyNRb6+Y4D2T7nSmZ8IJisK6jjh/xOuuhxQGGWju9b8b4+SlpdILhcA6FsGZNvbh6Ttj6rLSqRDAAwAn3/KT4TW+zoQOIbsgDDf8buvfIDN+9uixbXz0IO+WXzfbKqsy/dfNwCNq5JUvPr5p9WlI9KuxFUkHroWqv9fe/Mi+Ne7fUFZWlqs8nJVnWw4ovD9CWH1mr1pCt87fV+XTvmK49MHT5ishNPwRGbteirjdsXCaeb8i2d04VuFQku3S+LLMf2JIdva2rRyqsx/FHfp2TcSiEjS9utOeEza6rMKZe+H4jIk6E/ft3zNrR+t0PAJz3zsGcqPGSaiO9gGN485UCvUfnF+X6B/wAoXQmcuueqQh66O2tuREmeaugVTJxZGJWXYkJKsM6qlZP6WAY0MzV8nrbdI1fXWn3DPXa7unvejvzwnTgen5CxTKRC+fbw3/hHqluPY4f9TpPVKX1yUXv2Lb0Ho4sV2V1Xv0g9dHTtm++umrY68trXQCAPp3X86OHDDZ6SK4zkXtTlp8324O8ieUtuS0LXmA5PByZoqFqnTf1maXT69Zre5/MvLC6ClzzE+3vHZ+4rF7Tu8PNB4vhdQ4PPx4dBvvTHcLq9UC3YF3WV0oyOdrxkUPH9XLRCwYgP9oTsJfe6HG3AC+4rMi636ir4HXzLdMz9nBbGv7wnjffSq9E071Omy+WZOthuEfsgkx2huYU3TNkVuN3TK1hpvaDoUaj1/ZBePPClmTunsik/yEBfdy3lmSpMx9scF2v84Bzwtq9af68tLrcUtc26ocDukPYhR25ae4RVizOqfi+IYs2++ngLB20wmErahsAZJ03LPeKyJw3rKiXOdl68bb5BGFZqt48MPOcNxfKfJpw4posqyAxrbe/uS1TUT1hgftOTd+bkuulcKM7Los/My8r/vFV2OseHuxFz6EyQ4KRHwiIdnStYe3a5d50p4b2uXptH8S4XPqxksjzej6Y2eTVpL70nA92hGNf5z7o3rTOa6MyUuhTpMMotFqtgUa1dEDTwt/k8j2rjiowfN25rSsn4Sh86wvqcht1ZUve69LznQEX3LhxQ65cuXLEnDAAAAAkJrYQNlB3WopGva681gUAAOyiJwwAAMCCWEOYa70zcV1PXusCAAD2xN4T5kpAiPs68loXAACwg+FIAAAACxIJYbZ7a5I6f17rAgAA6UusJ8xWYEj6vHmtCwAApCvR4ci0g0Na58trXQAAID2JzwkjGI2GAAYAQD6lMjFfB4mkwkSSxz5OXusCAADJSyWE+eIOFa6ElLzWBQAAkpNqCNN0wBg1ZMRxjLjltS4AAJCM1EOYzw8cwSVKv/u5ot/r7Xc/AACQT9ZCWJS8BpO81gUAAIbnVAgDAAA4KQhhAAAAFhDCAAAALCCEAQAAWEAIAwAAsKDQarUG+rBesVg0awAAZIdq78waYNeNGzfkypUr9IQBAADYQAgDAACwgBAGAABgwdBzwvJy1/eC+erbv3/HrGVb4eJVs9ZGXW6jrmyhrmzx62JOGFzBnDAAAACLCGEAAAAWOBXC9NBgeAEAAMgjayGs38DV734AAABZknoIiyNIEcYAAEDWpRrC4g5OBDEAAJBVqYSwJHuukjw2AABAUhIPYWkFJIIYAADIkkRDWNrBiCAGAACyIrEQZisQEcQAAEAWJBLCbAchghgAAHBdKhPzAQAA0C32EOZKLxS9YQAAwGWxhjDXgg9BDAAAuIrhSAAAAAtiC2Gu9jrRGwYAAFxETxgAACdBsybPFIvyXKVuNtTlnH5crMiY2RKbZl3O1PzzoBdCWEoKF692FgAAckuHvek5ObttHqMnQljCooIXYQwAAPQMYc3ajBRnatI0jzG444IWQQwAYM8FeVpSX0qT8rS9ASnrEcLqcmupYdaP5/rkdybnAwBcdqo2Y+Zm1eXcjJ6nZeZqBXpCTtVrgefUMjMj5+o9ukqa+jj6mO19n6nUIxr8cdmbUl+mJmSvvcFzql6RZ4LnKarz1KK+/zCvjuklOa0frMy1z11rX+NYpX2sM+FLPjRX7ejX4+A4TTlTOajxuZmKnOn1ejgq8jVt1m6KLC+LDsgYTr+9XPSGAQB8Y5U5GfP7QHQP1Xh7VYeSZ+eWDp7TGg0Zm5v2AlYXMydrTD3vO60C0blbhydp7VZb8m61bB7551mR0139MOo8S3Py7EytryAWp16vh76ms9PTcnYlcKGNFTk7t3A45Dns8Oup3ryF7etSvWQeAwCAFKzI2EpJHm+qYNRSy8Ziu4eqXpFn9ehUaV4ebW62n9PL5qrslkzA6uSwppxZaPdEPZ1flR+YfX+wOq8Or8JVe6ce6nLWGwULXIM5z2PdK9NY6+qZi7K3uKH2X24Pb6rz6+9/b7GTnAbU4/XoUM+t+q/HZvsadTi7lZ1PZYZCWFNqC2ty+dpBKgYAAOl4unxbnoQyy9j6ivqvChy3q7I7HnhyvCyPNlQQU6tj6yZ4NO+2e45Ky/KoWu6Elr1yVR4tDzC+9SCQttR5nmzooLNx6NqSFvV6+Lznyv6T4/LkugqaGdMVwpq1BVm7fFuGDq3o2L9/x6wdrd/9AAD5tzcRboCbcmpLf9XDb/7cqOAy177H19ZOu0F/sN3u7QrN89L2Ll0+ZgJ+WXa9HKPONTfdPr6ed6bng1ka4jv8evhKsnsp9NyF7H3AIBDC2pPxG0vTUlQvfHF6SRqNJZnu4xOS++arq1y/PgAAoj0Izc/qoWHCl/F08oJZG8xudVMezQd6zPS8Mz0fTAfAmQRu6nrCBUJYWaqtlrT8ZXNZSqVl2dxYFDrGhnNcLxe9YACAo5nbSMi8PPLmPvVaqt6wpO/09gOzNqhxFcQ2vGP+QM8Fm58351caK3Iu/CEAjCQ0Jwxx00ErHLaitgEAcJi5jYSepN5P/vGH5PzhyYBTd9eOmZjfbU/PBatW5T09H2xzuR3yIo47mIacDuXDQa8rT3q/luOLskEvWGz84EX4AgAMYne2PeF8bC58X7CmjHn30yoe3GNLtd1P9O6NJXk2cG8w7x5jx93/079flx52DM1DOvVge4ihyO7A9nSy3aU2dvPgVhd9XVeOjRZoAQBAsvQnG715Wu37gh1Myp82AWbe+ySkb/eauUXEypw8a/bV9xgTPbTo7dFDJ8CtyLnQhwD0vcPan9AM3ybiCCsqCKrv9W/W2vlggA6IneP2cV05FlsIc3XyO5PyAQBZp+dp6Xt9deZneUrmXmDd88F0mHrPm891sLPe771rk+ZRb/rmrYfPo79/WR5t9nmLCnX+R8sHwaozP827rmXv3mZtJdld3uzruvKq0Gq1Bsop+pOTWtQ3ufi/BzquuPA152W4MHwnfupyG3VlC3Vli1+X/tAZ4IIbN27IlStX4h2OdK3XiV4wAADgqtjnhLkSfAhgAADAZUzMBwAAsCCREGa7F4peMAAA4LrEesJsBSECGAAAyIJEhyPTDkQEMAAAkBWJzwlLKxgRwAAAQJakMjFfB6SkQlKSxwYAAEhKKiHMF3dYInwBAICsSjWEaXH0XMVxDAAAAJtSD2E+P0gFlyj97gcAAJAl1kJYFAIXAAA4KZwKYQAAACcFIQwAAMACQhgAAIAFhDAAAAALCGEAAAAWFFqt1kAfQiwWi2YNAIDsUO2dWQPsunHjhly5coWeMAAAABsIYQAAABYQwgAAACwYek7Y/v073tesK1y8atbaqMtt1JUt1JUt4brkhvmadaYO5oTBFcwJAwAAsIgQBgAAYAEhDACQHj00GF6AE4oQBgBIRkTg2t/fP7RE7QecBIQwAEC8TJCKDFwRIvcjjOEEIIQBAOITCF+j6ApjQE4RwgAAozM9V6OGr7BOECOMIYcIYQCA0ZjwFXcA83WOTRBDzhDCAADDS6D3qxeCGPKGEAYAGE6KAcxHEEOeEMIAAIOzEMB8BDHkBSEMAADAAkIYAGAwFnvBfPSGIQ8IYQCA/jkQwHwEMWQdIQwAAMACQhgAoD8O9YL56A1DlhHCAAAALCCEAQAAWEAIAwAAsOBQCGvWZqRYLJqlInWzHQAAAPE5FMIebDdkfrUlrZZeqlI22wEAJ5iDk/J9TM5H1nzjG9+Q119/PWo4siSTF8wqAAAAYvVzP/dz8qUvfSkcwpqys9WQpen2cORMrWm2AwAAIE6hEDYuixv+UOSqTC0tCDkMAAAgfhHDkb6yzM43ZO0uKQwAACBuR4SwtqmJcbMGADixbogUCgXzwC3edTExHxnUO4Q1a3JzhUn6AAAASQiFsLpU/HuETS/J1OqGLNIRBgAAELtQCCtL1ZuU316q3CQMAAAgEcfOCQMAAED8CGEAgP44ODmfSfnIMkIYAACABYQwAED/HOoNoxcMWUcIAwAMxoEgRgBDHhDCAAAALCCEAQAGZ7E3jF4w5AUhDAAwHAtBjACGPCGEAQCGl2IQI4AhbwhhAIDRmCCWVBjrHJsAhpwhhAEARqcDUgK9Yp3wRQBDDhHCAADxMUFs1DDWOQbhCzlGCAMAxMv0XPlBKrhEidzPHAPIM0IYACAZfpAKLEcGruACnACEMABAeghcQAchDAAAwAJCGAAAgAWEMAAAAAsIYQAAACna3d2V9957jxAGAABgQ6HVau2b9b4Ui0WzBgBAdqj2zqwBdn32s5+Vj33sY/SEAQAA2EAIAwAAsIAQBgAAYMHQc8L279/xvmZd4eJVs9ZGXW6jrmw5KXXl5q7v4TpyVhdzwuAK5oQBAABYRAgDAACwgBAGAC7SQ2jhJQ/yWhcwBEIYANgWEUz29/cPLVH7OS3ienNRFxATQhgA2GICR2QwiRC5n4uhJa91ATEjhAGADYGQMoqu0OKCvNYFJIAQBgBp0qHCBJU4dQKLrdCS17qABBHCACAtJqTEHVR8nWOnHVjyWheQMEIYAKTBBJU0pBpY8loXkAJCGAAkLcWg4kslsOS1LiAlhDAASJKFoOJLNLDktS4gRYQwAACAFK2trcmlS5cIYQCQGIu9Rb5Eeo3yWheQkmf+xhn5W+9/jhAGAIlwIKj4Yg0sea0LSNFHP3xR/uh3FwhhAAAANhDCACBuDvUW+WLpNcprXYAlhDAAAAALCGEAAAAWEMIAAAAsiAxh9UpRikW9zEitaTYCAAAgNodCmA5gNyc3pdVqqWVDFsfNEwCA4zk4ed030iT2vNYFWBQKYXVZ31qW2yQvAACARHWHsPq6rExtyy1vKFItMzVhNBIAACB+h+eErWzJ5KYeimzJ6tSSLDApDAAAIHaHQ9j89c48sPLsvDS2H7QfAAAAIDaHQxgAYHg3RAqFgnngFu+6RpiYn8u6AIu6Q1h5VuZXbprbUjSldnNF5mfL3lMAAACIT6gnrCzVzcuyNq0n5k/L0tSqVMlgAAAAsTs8HDm+KBvePcLUQgIDAABIBHPCAAAALCCEAUDcHJzEHsvk9bzWBVhCCAMAALCAEAYASXCo1yjW3qK81gVYQAgDgKQ4EFgSCSp5rQtIGSEMAADAAkIYACTJYq9Ror1Fea0LSBEhDACSZiGwpBJU8loXkBJCGACkIcXAkmpQyWtdQAoIYQCQFhNYkgotnWOnHVTyWheQMEIYAKRJBwkTWuLUCSm2gkpe6wISRAgDABtMYBk1tHSO4UpIyWtdQAIIYQBgiw4YgdASXKJE7meO4ZS81gXEjBAGALb5gSOwHBlMgovLIq43F3UBMSGEAYCL8hpM8loXMARCGAAAgAWEMAAAAAsIYQAAABYQwgAAACwghAEAAFhQaLVa+2a9L8Vi0awBAJAdqr0za4BdNz7zqlz5+R+nJwwAAMAGQhgAAIAFhDAAAAALhp4Ttn//jvc16woXr5q1NupyG3VlS7iu3NwdPVwHdbnN1MGcMLiCOWEAAAAWEcIAAAAsIIQByDY91BRe8oC6gNz6j1//c/nZf7rMnDDmGGULdWVL7HPCIr5/f//wr7BCoWDWAuJs7MPHoq5ojtXFnDC44oUXXpC3336bnjAAGaAbUbXoBjy8RInczxzDKdTlidzPxbqAmBHCALgt0JiPoqtxdwF1Hcm5uoAYfWjq78r1T10ihAFwlG58TYMep07Dbqtxp66BWK8LSMDE3/mb8gs/P00IA+Ag05jH3aD7OsdOu2GnrqFYqwtIGCEMgFtMg56GVBt26hpZqnUBKSCEAXBHig26L5WGnbpik0pdQEoIYQDcYKFB9yXasFNX7BKtC0gRIQwAAMACQhgA+yz2qvgS6V2hrsQkUheQMkIYALscaNB9sTbs1JW4WOsCLCCEAQAAWEAIA2CPQ70qvlh6V6grNbHUBVhCCAMAALCAEAYAAGABIQwAAMCCrhDWrM1IsVgMLRWpm+cBAAAQj64QNr64Ia1Wq7NsLpektHxNyuZ5AIiNg5O8fSNN9qau1I1UF2DREcORdbm1NCXXF8fNYwAAAMSldwirr8sWvWAAAACJ6BHCmlK7uSWXL9ELBgAAkIToENa8K2tT14WRSAAAgGREhrDm3TWZmmUgEkCCbogUCgXzwC3edY0wgZ260jVSXYBFESGsKSqDyeQF8xAAAACxiwhhD2S7MSUTDEUCAAAkJiKElaXaqvKpSAAAgARFT8wHAABAoghhAOxxcLJ3LJO8qSs1sdQFWEIIAwAAsIAQBsAuh3pXYu1Voa7ExVoXYAEhDIB9DjTsiTTo1JWYROoCUkYIAwAAsIAQBsANFntXEu1Voa7YJVoXkCJCGAB3WGjYU2nQqSs2qdQFpIQQBsAtKTbsqTbo1DWyVOsCUkAIA+Ae07An1bh3jp12g05dQ7FWF5AwQhgAN+kG1zTuceo05rYadOoaiPW6gAQRwgC4zTTsozbunWO40phT15GcqwtIACEMgPt0Qxxo3INLlMj9zDGcQl2eyP1crAuIWaHVau2b9b4Ui0Xv6/79O97XrCtcvGrW2qjLbdSVLeG6EmlUo46ZdOMdPj519c9iXaq9a68Alt34zKty5ed/nJ4wABmnG9jwkgfUBeQeIQwAAMACQhgAAIAFhDAAAAALCGEAAAAWEMIAAABS9OB/fV/+03/+H8PfogIAgCzhFhVwxQsvvCBvv/02PWEAAAA2EMIAAAAsIIQBAACk6MrLPyV/9u+X+N8W8b/ByRb+9z4ZE66DutyW87qYEwZX8L8tAgAAsIgQBgAAYAEhDDgp9JBMeMkD6sqWvNYFDIE5YcydyhTmhPUp4vv39w//Uy8UCmYtIM5GMXws6opGXWYtIIG6mBMGVzAnDMgj3dioRTd04SVK5H7mGE6hLk/kftQFZBYhDMiLQKM3iq5G0AXUdSTqArKLEAZknW6kTMMXp04DaKsRpK6BUBeQPYQwIMtMoxd3w+frHDvtBpC6hkJdQLYQwoCsMg1fGlJtAKlrZNQFZAMhDMiiFBs+XyoNIHXFhroA9xHCgKyx0PD5Em0AqSt21AW4jRAGAABgASEMyBKLvQ++RHohqCsx1AW4ixAGZIUDDZ8v1gaQuhJHXYCbCGEAAAAWEMKALHCo98EXSy8EdaWGugD3EMIAAAAsIIQBAABYQAgDAACw4HAIq1ekWCx6y0ytaTYCAAAgTqEQVpfK3JYsb7ak1VqVqaUFIYcBljk4Gdo30qRo6koddQFu6Q5hzR3ZKl2WS+P6QVlm5xuy/cB7BgAAADHqDmHjl+SyrMldr/erLusr8zJb9p4BAABAjELDkeOyeFvFsGk9J2xOZLUqZDAAAID4hYYjazKzIHK7peeEtWR2vSiVunkOAAAAsekKYc27ayKXL4k3JUwpz87LyjopDLDqhkihUDAP3OJd1wgTvakrXdQFuKUrhI1PTElj7a74H4isr69IafKCeQQAAIC4dA9HlquyeXlNps19wuZkVTYW/X4xAAAAxCU0MV9kfHHDmw/mLVWm5QMAACThUAgDAABA8ghhQBY4OCk6lsnQ1JUa6gLcQwgDAACwgBAGZIVDvRCx9j5QV+KoC3ATIQzIEgcawEQaPupKDHUB7iKEAQAAWEAIA7LGYi9Eor0P1BU76gLcRggDsshCA5hKw0ddsaEuwH2EMCCrUmwAU234qGtk1AVkAyEMyDLTACbVCHaOnXbDR11DoS4gWwhhQNbphsk0gnHqNHq2Gj7qGgh1AdlDCAPywjSAozaCnWO40uhR15GoC8im/f19QhiQK7rBCjSCwSVK5H7mGE6hLk/kftQFZM6bf3Jf/sn1O1JotVr7ZltfisWi93X//h3va9YVLl41a23U5baTUlcijU/UMZNu5MLHp67+UVd8zPFVe9deASx74YUX5O233yaEEVayhRCWMeE6qMttOa+LEAZX+CGM4UgAAIAU/e0feZ/8o5+aJIQBAACk6aW/PyHLlX9MCAMAAEib/vwJIQwAACBlp04VCGEAAABp827HMuynIwEAyBI+HQlX3PjMq/LqR36CnjAAAIC0nT59Sv4/EdETMrK0Zc0AAAAASUVORK5CYII=;points=[[0,0,0,0,0],[0,0.25,0,0,0],[0,0.5,0,0,0],[0,0.75,0,0,0],[0,1,0,0,0],[0.15,0.49,0,0,0],[0.24,0.38,0,0,0],[0.25,0,0,0,0],[0.25,1,0,0,0],[0.33,0.27,0,0,0],[0.5,0,0,0,0],[0.5,1,0,0,0],[0.75,0,0,0,0],[0.75,1,0,0,0],[1,0,0,0,0],[1,0.25,0,0,0],[1,0.5,0,0,0],[1,0.75,0,0,0],[1,1,0,0,0]];" vertex="1" parent="1">
          <mxGeometry x="1035" y="80" width="609" height="483" as="geometry" />
        </mxCell>
        <mxCell id="5DEDQGz0tck6MsNurVrF-10" value="Score Display" style="shape=curlyBracket;whiteSpace=wrap;html=1;rounded=1;flipH=1;labelPosition=right;verticalLabelPosition=middle;align=left;verticalAlign=middle;" vertex="1" parent="1">
          <mxGeometry x="1652" y="105" width="20" height="158" as="geometry" />
        </mxCell>
        <mxCell id="5DEDQGz0tck6MsNurVrF-11" value="Player&#39;s turn, green cannot be selected" style="shape=curlyBracket;whiteSpace=wrap;html=1;rounded=1;flipH=1;labelPosition=right;verticalLabelPosition=middle;align=left;verticalAlign=middle;" vertex="1" parent="1">
          <mxGeometry x="1648" y="288" width="20" height="55" as="geometry" />
        </mxCell>
        <mxCell id="5DEDQGz0tck6MsNurVrF-12" value="" style="shape=curlyBracket;whiteSpace=wrap;html=1;rounded=1;flipH=1;labelPosition=center;verticalLabelPosition=middle;align=center;verticalAlign=middle;rotation=90;horizontal=0;size=0.5;labelBackgroundColor=none;" vertex="1" parent="1">
          <mxGeometry x="1247.5" y="363.5" width="29" height="431" as="geometry" />
        </mxCell>
        <mxCell id="5DEDQGz0tck6MsNurVrF-13" value="Game Board" style="text;html=1;align=center;verticalAlign=middle;resizable=0;points=[];autosize=1;strokeColor=none;fillColor=none;" vertex="1" parent="1">
          <mxGeometry x="1221" y="591" width="86" height="26" as="geometry" />
        </mxCell>
        <mxCell id="5DEDQGz0tck6MsNurVrF-14" value="Possible moves" style="text;html=1;align=center;verticalAlign=middle;resizable=0;points=[[0.06,0.22,0,0,0],[0.2,0.11,0,0,0],[0.38,0.06,0,0,0]];autosize=1;strokeColor=none;fillColor=none;labelBackgroundColor=default;fontSize=17;" vertex="1" parent="1">
          <mxGeometry x="1244" y="299.5" width="137" height="32" as="geometry" />
        </mxCell>
        <mxCell id="5DEDQGz0tck6MsNurVrF-17" style="rounded=0;orthogonalLoop=1;jettySize=auto;html=1;exitX=0.06;exitY=0.22;exitDx=0;exitDy=0;exitPerimeter=0;entryX=0.15;entryY=0.49;entryDx=0;entryDy=0;entryPerimeter=0;strokeColor=#ffffff;" edge="1" parent="1" source="5DEDQGz0tck6MsNurVrF-14" target="5DEDQGz0tck6MsNurVrF-8">
          <mxGeometry relative="1" as="geometry" />
        </mxCell>
        <mxCell id="5DEDQGz0tck6MsNurVrF-18" style="rounded=0;orthogonalLoop=1;jettySize=auto;html=1;exitX=0.2;exitY=0.11;exitDx=0;exitDy=0;exitPerimeter=0;entryX=0.24;entryY=0.38;entryDx=0;entryDy=0;entryPerimeter=0;strokeColor=#FFFFFF;" edge="1" parent="1" source="5DEDQGz0tck6MsNurVrF-14" target="5DEDQGz0tck6MsNurVrF-8">
          <mxGeometry relative="1" as="geometry" />
        </mxCell>
        <mxCell id="5DEDQGz0tck6MsNurVrF-19" style="rounded=0;orthogonalLoop=1;jettySize=auto;html=1;exitX=0.38;exitY=0.06;exitDx=0;exitDy=0;exitPerimeter=0;entryX=0.33;entryY=0.27;entryDx=0;entryDy=0;entryPerimeter=0;strokeColor=#FFFFFF;" edge="1" parent="1" source="5DEDQGz0tck6MsNurVrF-14" target="5DEDQGz0tck6MsNurVrF-8">
          <mxGeometry relative="1" as="geometry" />
        </mxCell>
        <mxCell id="5DEDQGz0tck6MsNurVrF-20" value="&lt;font style=&quot;font-size: 14px;&quot;&gt;Selected piece&lt;/font&gt;" style="text;html=1;align=center;verticalAlign=middle;resizable=0;points=[[0.06,0.22,0,0,0],[0.2,0.11,0,0,0],[0.38,0.06,0,0,0]];autosize=1;strokeColor=none;fillColor=none;labelBackgroundColor=default;fontSize=17;" vertex="1" parent="1">
          <mxGeometry x="1069" y="155" width="110" height="32" as="geometry" />
        </mxCell>
        <mxCell id="5DEDQGz0tck6MsNurVrF-21" value="" style="shape=image;verticalLabelPosition=bottom;labelBackgroundColor=default;verticalAlign=top;aspect=fixed;imageAspect=0;image=data:image/png,iVBORw0KGgoAAAANSUhEUgAAAmEAAAHkCAYAAAB2YPi9AAAAAXNSR0IArs4c6QAAAARnQU1BAACxjwv8YQUAAAAJcEhZcwAADsMAAA7DAcdvqGQAADdSSURBVHhe7d1hbCTnfd/x/y7vrIsqwyvm0hZFUaA82hTY6EUYY+2cVLuAujxFFNAyEFsEUBUqqazji5y3SC4B3zGBUbY4pF5dXvASuS0tCEFRoiEKHGUdWSABGl+Tjc0GvoAQbd4ibtOibU7MynbOJ5+P23lmn1kOh7Pk7O7MPM/Mfj/CiDPD4ez8l+Q+v3ueZ4eF//nnf9764Q8fycHBQWdptVqhi+J9TIxz/jNnRqRQKLib3se0+ettPfiBFJz/AEBxXhWkcO4jVr1OffiDH7jrx3nX1strd9Sv8dcddqz6fC+Pe5pu5+u1xl6PT5rJ64n7exQmru+bctrXpFWP5/Cx/Pko+NpQKBTddbVZKBal6CwjI07WuXLlStJX27P2hfqLNMd9Uh8d6C0A0EbaL6o2UK9Tj5x/QAPIFjeEvfHGG3oTAAAASfvFK1ekqNcBAACQIkIYAACAAYQwAAAAAwhhAAAABhDCAAAADIgthG1sbMjPvPSSXPkXv6z3AAAAoJuBQ9j+/r587nOfk3/5r74gL/7yqnzjv39NfwYAAADdDBzCfumXfkk+/fP/Rn7h2pb8h9//P/Lkk0/qzwAAAKCbgULYq6++Kn//9d9019/4zVX349mzZ+Uv/uIv3HUAADBcvL96c9piG3VNX//61/XWcepzcV933yHs+9//vuzt7brrv/4rVfkbTz8vrW/8lvu3kH7sx37M3X+yr8jrhWfkjT292dFtv1+UYwAAgAnqT2mdtNjoa1/7mvzUM8+GBjG1T31OHROnvkPY66+/Lq9e23TXv/1f/6378S+/+Xty/fp1dx0AACArfvInf1L+21f/4FgQ8wKY+pw6Jk59hbC7d+/KnTvfcNd/4ac+KpXlb7nr4+PjEXvBAAAA7BIMYkkGMCkU+gthKysr8osrf6C32v7qj74oDx480Fvx+crrvjHk17+i9/rpocmvvCHP6OPUYXtvPNP5umd845annw8AAAwrfxBLLIBpfYWwb3/72+5HrxesdXAgD//XH8vv/u7vuvujuy3Vj/tCkbu8IL+tP6v89G95Y8jvyOd++wtd5oE55/mCyJfVce98Tn77hYL8nHy5/XXO9u3qNSeqtUU7HwAA5h1tH7svyKa+QpiafO/3we2aVCoVKRZ7Pd1FqX3LC0W+cKQ/6/rK6/qH7Gg4O8o5z5c/L+Nq9af/sfP1F+WfzLhbevtP5Zte2Ip0PgAAzDvaPnZfEB//EKR/aDIJfYewn//0E3pL5CPNb8gXvvAFvRWjvTfkmRdE3nF/yL4ltYt6f7/iPh8AAMiN4Byw4ByxuPUVwv7sz/5MXv6Ff+6u//G/Lstv/MZvJNMd+q0duX1xUj6u1vc25D/edvf2L+7zAQCAXOg2CT/JINZXCLtx44b86dfb98r41V/9FfnUpz7lrsfup69KTarycTV8+HM78uOD9lzFfT4AAHCMN1et22KjT37yk8cCmMcLYuqYOBWuXLnSeuONN/RmdB988IGUSiXGogEAAHr0i5//fH89Ycq5c+f0GgAAAHrVdwh77LHH5Hd+53f0FgAAAHrRdwhTfvZnf1avAQAAoBcDhTAAAAD0hxAGAABgACEMAADAAEIYAACAAYQwAAAAAwhhAAAAaWu1pOjQWwAAAEjDmZERKVSr1dbS0pLeBQAAgKSp7EU3GAAAgAGEMAAAAAMIYQAAAAYQwgAAAAwghAEAABhACEvNllRL07LS0JvIGL5/mbFVlVKpJKXpFeHbZSt+nwazJY87P+Mf8y2Pb+lPRabOMS2PhX0PnN+hw3NX5azebYTvWp7I4Q8MIQxAjjiN+9yqzK81pbm5IGN6L5A/ZXmw3ZQPms6yNi9n52IKS40VeWJO5L46r1q2J6TYc8CLixMUO9eyJgeLl8NDY4YRwgDkTFkmLuhVYBhUZuSh7EgxjoByd1dGyhPySG/K2IJ8WNHradvakLPzqjalIg+WRc7eylcKszaEbVVL7SEFtVSNxfD43V2RaV3XdK66VhuyMn34PcvFt8z5F+Hh92pP78wJX22lUtX592YeqCGuOVmVuixO5ej368jP4Uq+hvFy+3qYMhVWyrPy0Ov6Vb1ZznN6bDjRt/+Jbq9pKtDVF+Xx0O9HQx5zXue94cHOEOiRx/MPjbaHPB+vTjv79XWEXZsacpxeORZIins78sj3L6qD8UkZ2b2rt/LB2hBWqTWl2VTLmsyvXsvJi47TOFwTuaHq2nYi/eLlnNSlAtiUrM9u6+9ZU2qm/uUUG6dBn1qUSTWs5dRzQ9adxj0vVG3rMrutf8fWRK7l4gexIjX1eiFlWXZq21zIw2Bknn8Ofa+Ha/NSX7zuVIvo6nLO+ceGG2Y2ZuSDzQU5cPc7wcf5/X7YGaoUecz9/Vb7F+XA+VlS++87P0vhw5cVud/clofrU4FApQLYlJx1Xufd86pzuK/zR8/7gdO2Fef8c83qUpy44XyuJg+7Xtvwsnc40ptc6/7LNi+cxuGGnqcytiBX5+uSi1DfuCXr9Xm5motGT2vsyU55Wa7oMDm2cNVp3HNC1aZ7i9zfsblVqefsX5e5keefQ//rYWXGqWtH9oa7Pe6RnhPmhJ5Hqxu+3q49p2H3BTTn99vtPVL7nZ+lB/pn6cD5WWoP84UZkw83vUClg5jzOn/WeZ3/MPg67z7evDz0/uGthi+dtm2k85JSloeX9Nd0u7ZKzRcih4udIUx1v8+JrDlJuekk8uWy3p8rDdnb0atA6ub175dest91CQwnJ/TcX94J9CjNH06sV0u/v9/uuctydiPOPsro1xYcfgwOT+aBnSHs7q7UyxPiPtVuL4u7Nwfqsu5NKtS9RzN5aPvGLslseTUnQ1ra2LhM1hflun7taaxcy0+PrKrNqSZX36+8yvPPIWKjerU67xx0fmYOnJ+SY8N8ar/zs3RO/ywVnZ+l0OHIrRXfUGJDzjoNsBt8nNf5h87rfOh5ncc76+W0hvP1q76eMb9u19ZlTphcmPD18m3JuUU57FXLCTtDWOWKLMuiTKmhksu7MpmbnrCyTO5ebg8BufM8apKP/ocxWdhck8nFKT2EnIeJ+RWprc3L6ly7nssy6/z7LS+c2tw5iYffr1y9+SVX8vxziPi03zl47rIKMhW5r3+/25PfncX9/Xb2u7eyaO973PlZCh2OrIzLiDdcWJqSc5Nr8j13CFINUarbRByetz1frP14atjS3e/O+VLzv8J0u7Yuxhbke2ui74mmhsc25cN8ZTApVKvV1tLSkt4EAFhLTdWY2pWrzbz8Aw4YXip72TsxHwBwxNb1xcOpGgAyr3jQaulVAIBdjt5/b251Xtb4SwBAbtATBgDWUvMtfe9iZRgSyBVCGAAAgAGEMAAAAAMKVz7/+dav/9qv6c1o1NwEAACyRg3rAjbg3ZEAAACGDNQTlpf3VRb0Rw912W1o6rrzpl7LtsLTr+m1NuqyW97roicMtnB7woqF4Es/AAAAksZwJAAAgAHWhTDVLxdc8oC6AACAn9EQFrUBj3qcLaJeb9TjbBH1eqMeBwDAMDMSwuJomG1s3KmrOxvrAgDApNRDWNwNsS0NO3VFY0tdAACYlloIU41vUg1wkuc+DXX1zmRdAADYIpUQllaDm3bDTl2DSbsuAABskngII0DEg7oAAMiXREOYqQY26celrniZelwAAEwqvv+XyfwJB9MNa1KPT13JMP34AACkSeWv4o8+2f47kAAAAEiHyl+JDEfa0qsR93VQV7JsuQ4AANIQewizrSGN63qoKx22XQ8AAElJ5RYVAAAAOKr4wx8e6NXB2dqLMeh1UVe6bL0uAADiVPzqV+/qVQAAAKSl+MwzF/QqAAAA0lI8c4ZpYQAAAGnrnsC2qlIqVWVLbwIAgIDGijxRKsnHvGV6ZYB3vG3J46VpeayhN9PgXr/3mN0eX+331egsj/ccDsLPfbYaPFfIcU4e+VjVOejItcZMPYaTec7qTZe7r13vEytJPGhoCGvIynRJShsi83pPFLZPpu73+qjLDNuvDwDcUDC1Lg+3m/JBs73cn9yVEf1pOwVCztiCfK+5KR+O6e2uyvLAq3NtXs7OBQJLnx7OOOfa8KWwxp4TTOpy9tZh6Cnu7cijiQs9XGsvGvKYk3k+5mSeh3pPm/M8zYncd7+va3KweDmR8BcSwsZkYbMpzdqM3gYAAEc5jfflRTlYOxoKHtZqgcY8hyozTo07UowjlFyYkEc7Kni1FW+ty8Hyssiu96bBhpxdd57XS7EmL58x+dDJPB8EM8/WhpydV3UqFXngXJI/GMal/15TAACGVeOWnK3Py8OK3g4TGKr0D7upYThvvzvUdozuoQn52rbgsJ1/W6+vBIfT1P45OSt1OTflPW7wPBGogFKelYdeLjpSp6+HzLf/iZU9vTNg7JITdNblrPv47cD16NK4HKw6j+EecFdG6pNy4D5WlBqVkOdODS32MFTc6X3TDsYnZaQTDONDCAMAoB/lCXmkV4sr07rR94WEKdVTpofwtpelOHcYdh7W9P7mmjxcvXY8BG1dl3OTa/qYptw/KeyFcoLW7kz769fmZWTxuhNqKnJfPZ43tFjr5aQ6uKkaN5zzbi5I+y6jqk7fkOyaOMFIFXO0/vsqaLnHB43JwWRdRtx84wQuUeGuIg/ndU/bkR6poLAaHQM/d+khhAEA0I/64fyvg4VNp8FXAUdz5zb5esrGFuTDeS9sODqTvlXPVAg1TLc6N8CEcCdoXdEPHsvwoQ5uTph81Omlcug5XJ2ANrfa7jFS+8vL8kBfwsHC1S5ByjcvTAWuyXE33D2aaA//BXukjupSY9hzV6n5gqM9YgthLf3RVv1eH3WZYfv1ARhyYyos9Bls1DBdZ9L3tjwo6/1+7iR01YN02Q03vb8bMSHOdd1f3tG9XZ55XYteeuphc+h5YWedwPVwpv21B5dmRXZv9TcfLIbnLjj8eHIY7B89YQAA9Kw9WfvcVJd3CbohbVXOegHACV6Preqesbu7MuINZbpzy9RKONXD9t3lshMCgmnvgjwq+3vWfL1TCVO9Wp13C+o6j4Yyh9pfX5Rzuv7iyrXu1+fOC1uUxxdFHnk5R339qvP1nflgvTvy3PU4J6zdm+Y9p1tyzrm2JN4cQAgDAKAP7hDkmsjhPbTmpLh8Q79bsiL33Xlg+nPuvCn9zsnKFXnghI6Pqv2Xd+UgrCfMd4+qjy5OyocLwQAwJh9eVbeK0Oc/douFbtR8K//E/H7oAHpZhZp2nbI41bne9nmd/e6tLNr7HldzvdpfHGJMHs46T4J/sr97nc6HrvPBTnDqcxeB6k3rfG/nRALvgo1LoVqttpaWlvRmNCXnopTgkJHN93Y6aXgreN3UZd4gdWXVsbruvKnXsq3w9Gt6rY267Jb3uprNpvsRME1lL3rCAAAADIg1hNnaIzHodVFXumy9LgAA4kRPGAAAgAGxhzDbejHiuh7qSodt1wMAQFIS6QmzpSGN+zqoK1m2XAcAAGlgOBIAAMCAxEKY6V6NpB6fupJh+vEBAEhboj1hphrWpB+XuuJl6nEBADAp8eHItBvYtB6PuuKR9uMBAGCLVOaEESAGQ10AAORPahPzVYObVKOb5LlPQ129M1kXAAC2SC2EeeJufG1pzKkrGlvqAgDAtNRDmKIa4kEb4zjOETfq6s7GugAAMMlICPN4DbN/CRP1OFtEvd6ox9ki6vVGPQ4AgGFmNISFyWsDTl0AAMDPuhAGAAAwDAhhAAAABhDCAAAADCCEAQAAGEAIAwAAMKBQrVZbS0tLejOaUqmk1wAAyI5ms6nXALNU9qInDAAAwABCGAAAgAGEMAAAAAMGmhOWl7ujF/RHD3XZ7Vhdd97Ua9lWePo1vdZGXXajrmzx6mJOGGzBnDAAAABDCGEAAAAGWBfC1FBTcAHSpoYuggsAAHEyGsKiBq6oxwH9iBq4oh4HAEAURkJYHEGKMIZBxRGkCGMAgH6lHsLiDk4EMfQj7uBEEAMA9Cq1EJZkz1WS50a+JNlzleS5AQD5k0oISysgEcRwkrQCEkEMABBF4iEs7WBEEEOYtIMRQQwAcJpEQ5ipQEQQg5+pQEQQAwCcJLEQZjoIEcSgmA5CBDEAQDepTcwHAADAoURCmC29UPSGDTdbeqHoDQMAhIk9hNkWfAhiw8m24EMQAwAEMRwJAABgQKwhzNZeJ3rDhoutvU70hgEA/OgJAwAAMIAQhoGpnkZvgf1Uj5y3AADMIYShb2HBizBmr7DgRRgDAHNCQ9hWtSSlUnuZXmnovcCh04IWQcwupwUtghhguf0Vma457bK3vL0iqbfOe9XDx69VZUvvNsJ3LdP17OaU4yGssSJ7M01pNtWyJpOLlyVKDrO90SUUDAfbwwRhB0DPVAB7a11mX3Ha5Wp7WTu/K3f1p1OhruGmyJp+/OYrE7K3pz+Xui2pdq7FySm3nZyyrz+VMcdD2NiCLFT0ulyQibJeBbSogZbga4eowY+ACNioISvvLMrki5uyMKp3OSrP16TTVKdhf1fq5yecVKCNOllhXK+nbW9DVp+a0fVX5MpFkfW9bPaGnTIn7K7s1idlfExvAgCA9OzfkvV78zLTNfBsSbU2LdV3pw+HCI8MXfqGDUP3t79+pX7K8N74jMzfW5TLoUN/TlB82ztvSapeD1lgCLWzP+o1qyHHkGHXxv6OlEc7cVDGRielvp9qv2BsTgxhW9U52Vm+km7aBgAAh3w9UI26Ci4qqDjBqTMEV5ed0RvSrKreMSfg+IcuXxS55ganbvuVuizuz+j981K/fb0dgo6oSK26LbPfnHIf/zBQqQA2Jeuf2G5/vbPU3MCoHk/14OnHe2VZdm72es351yWEOU/qdEmuTWzL5gLdYDiqpT+eJupxSFbrzpt67WRRjwOQsnuH87/GyptOUFmTeb3dVpZZb8hqf092VKh6S/cq3Vxt9xJ12+8qy3JZd7eoHi/nyL3QOVZjsvCyF6h0ENM9dVfLgazgPp6vB290Qa4+VZfdznkjXPN4TZovLziPml8hIUwFsMsiN5o9BTDbG1wCwXCwPUgQdAD0ZHRcJruGom7mDyfQq+V5bzyr2/4eOYHqxsWyrO4d7y/rX/RrCw4/Bocns+R4CNu6LouTV4UOMJzktFBL6LXLaeGPcAjYqj3xfPEt39yuk7ihbfX4cF63/VHtrfiGEhty65v1dvAZvSSz57s/3oZvfti197rMbet2bV3mhMnohJTf29DPx5Zcvy2HvWoZcyyENfZ2RFbnOvcJ415h6EYFrWDYCtsHO6igFQxbYfsA2MUdgnxRZM6dC6aWOdm5eOPIuyUPVaT2yrLI7fbcLXd5V8WVbvsjGh+XXW+4sDYli+fXZNMdglRDlOo2EYfnbc8Xaz+eGrZ097tzvrq9o7PHaxtdkM3O8zEnEnjnaJYUqtVqa2lpSW9Go4KZEmxsbb4lwUnBIHjdeQkRQ1NXIETYfKuFkwJP8LrzEo6oK1vyXpe6ByZgA5W9Tnx3JAAAAJIRawiztaclLz1AiMbWf7nnpUcBABAPesIAAAAMiD2E2dbrRC/YcLKt14leMABAUCI9YbYEHwLYcLMl+BDAAABhGI4EAAAwILEQZroXil4wKKZ7oegFAwB0k2hPmKkgRACDn6kgRAADAJwk8eHItAMRAQxh0g5EBDAAwGlSmROWVjAigOEkaQUjAhgAIIrUJuargJRUSEry3MgXFZCSCklJnhsAkD+phTBP3GGJ8IV+xB2WCF8AgF4V33//fb2anjh6ruI4B4ZbHD1XcZwDADB8VP4qnjlzRm+mzwtS/iVM1OOAfnhByr+EiXocAACnUfnLaAgLQ+CCDQhcAIAkWRnCAAAA8s4NYSMjI3oTAAAAaVD5q+jQmwAAAEiDyl/FQqGgNwEAAJAGlb8IYQAAAClT+atQrVZbS0tLelc0pVJJrwEAkB3NZlOvAWap7MWEMAAAAAMIYQAAAAYQwgAAAAwYaE5YXu5mH3xrQm7rysld3wtPv6bX2qjLbtSVLXmvizlhsAVzwgAAAAwhhAEAABhgXQhTQ2jBBfZSXfzBJQ/yWhcAwB5GQ1jUwBX1OCQrajCJepwtol5v1OMAAIjCSAiLI0gRxtITR+CwMbTktS4AQDakHsLiDk4EsWTFHTBsCSx5rQsAkB2phbAke66SPPewUqEiqWCR5LlPk9e6AADZk0oISysgEcTikVaQSDuw5LUuAEA2JR7C0g5GBLHBEIziQRADAJwm0RBmKhARxPpjKjgk/bh5rQsAkG2JhTDTQYgg1hvTgSGpx89rXQCA7EttYj4AAAAOJRLCbOmFojcsGlt6a+K+jrzWBQDIh9hDmG3BhyB2MtsCQlzXk9e6AAD5wXAkAACAAbGGMFt7negNC2dr78yg15XXugAA+UJPGAAAgAGEMGDIqB45b8mTvNYFIL8IYcCQCAsoeQgtea0LQP6FhLCGrEyXpFRqL9UtvRtAZp0WSLIaWPJaFyy1vyLTNadt9Ja3V5wWs19bUq1Ny8q+3kyDe/3eY57y+LHW2rutd538sac3XCHXu1eV0rtOSDlSV8zUY9SqzqP7uPvaz8t0fbBnpdhqtfSq566MX21Ks+ks28uyMxd48C5sn/zO5PyjbG+c+r2+vNYFwDDV0L+1LrOvOG1jtb2snd91WkybBYLL6IJsVjdlYVRvd2NBrZXxeVnd86WP/T3Zkbqs7x2Gnsb+jpRHL0SvqycNWXnbCVpOEJzXe9qc5/SmyJr7vKzJ5O3LfYc/lb9CQlhFKhW9OjYuk3oVQDZFDX5ZC4h5rQs2chrkdxZl8sWjDX3l+ZrTYuaNJbWOTkj53l6n962xty6TF5edMOZFwYbc+qbI7PiY3o7bmCy87ASt52f0tra3IatPzejnoiJXLsqRYNgLN4QdHBzozRBbzoPNew8GAMAQ2r8l6/fmZWZcb4cJDN/5h9LU0Jq33x0+O0b3uoR8bVtwKM6/rdfrwSEytX9OVqUui295jxs8T4hTa22fo/rutPNYeqTsSO2+0bPQ/d2uN2D0kszKutxyr7UduCbGx2XyvQ19nruye29Sxt2g6K/rpPOHPM9qaLGHodZO75s2Njop9U4w7I3KX8U/+d/f0ZuHGivOk6vmhG3MSLNGBAMADLnzE+I1vY26CiCqIfc1/G+p3iM9fPfKsuzcPAw7lef1/uqazL937XgI2rsui+fX9DFNqZ0U9kI5QWvfaa/V1784L/Xb150rqkhNPZ6UZVkNKz7fQ1t+Yq1KXXZGbziPp3rHVO2+ocsXRa55ITB0vxJ2vUFjMn6+LrvuYzqBy4lkl0YrMvPUjuypfUd6pIK6nH/g5zleX/39r0pRiiN689DYwmZ7TtjMhhPGnCc+akQEYJ3WnTf12smiHmeLvNYFS907nBM1VnbaSDfgaO58JV/v0eiCXH3KCxCOzkRu1TMVQg29vTc3wCRvJ2iVdRwZn3GuRAeVfp1Uq6t8OAyo52q5vW2qxpur7Z6hbvtd0a63My9MBa7z404sE7kw2h7+C/ZIHdXl/GHP83hNmi8vuOdOW7HoRDC9Hq5Sk7V55wcpQk9bcGaZbWy/vrTZ3jD1e315rQuAQaNqfnSfwUYNyXUmcm/L8nm938+dWN6UG3LZDSzHhyNT1Fet87o+vXR63brtj0jPC9tyAtf8ePtrx8Znnef0Vn/zwWJ4noPDjyeHwdMdD2FbW75uwS3ZWC3LRP/nB2CB08JfVsNhXuuCbdoTsBff6nK3ADe4rMqG16g7wevae7pnbH9X6t7wnjvfSq2EU71O2xfLsrMf7BG7IBOdoTmH6hnSq/E7pdYgXfvhUKPWbX8v3HlhizJ3W2TCe5OAOu97i7LYmQ/WuyPPc49zwtq9ad68tC257lzbIG8OOB7CLuzJNX2PsFJpzonvm7Jgop8OQKxUIAmGkrB9WZPXumAXd1juRZE5d1hRLXOyc/GGfgdhRWruPDD9OXculH434fgVWXaCxJTa/86uTIb1hPnuOzV1e1KuloON7pgsfHpeVr3zO2Hv6PBgN2oOlR4SDH1DQLiTaw1q1y63pzo1tB+r2/5ejMmlT5RFzqv5YHqXW5Pzoet8sBOc+jxHoHrTOs+Nk5EC7yLtVeHZl15t3fzSF/VmNCqgKcEhPpvvxXXScGTwuvMydHmsrkCjZPNb909qQIPXPSx1ZRV1ZUve61LznQEbPPeZ506ZEwYAAIBExBrCbO1BYlJ+OFv/hTvodeW1LgBAvtATBgAAYEDsIcy2Xid6wU5mW+9MXNeT17oAAPmRSE+YLcGHABaNLQEh7uvIa10AgHxgOBIAAMCAxEKY6V4oesF6Y7q3JqnHz2tdAIDsS7QnzFQQIoD1x1RgSPpx81oXACDbEh+OTDsQEcAGk3ZwSOvx8loXACC7UpkTllYwIoDFg2A0GAIYACCK1Cbmq4CUVEhK8tzDSgWJpMJEkuc+TV7rAgBkT2ohzBN3WCJ8JSvuUGFLSMlrXQCA7Eg9hClx9FzFcQ5EowLGoCEjjnPELa91AQCywUgI83hByr+EiXockuUFDv8SJupxtoh6vVGPAwAgCqMhLAyBK1vyGkzyWhcAwB7WhTAAAIBhQAgDAAAwgBAGAABgACEMAADAAEIYAACAAYVnX3q1dfNLX9Sb0ZRKJb0GAEB2NJtNvQaY9dxnnqMnDAAAwARCGAAAgAGEMAAAAAMGmhOWl7vZF/RHT17ujl54+jW91kZddqOubKGubPHqYk4YbMGcMAAAAEMIYcAw+fHXji8AACMIYRiI6uIPLrBE1MAVdpxaAACJIoQhsqiBK+pxSEhcIYogBgCJIoThVHEEKcJYCiKFL/V2muBygrgCHQDgGEIYThR3cCKIJSQ0KEUNXBGOI4gBQOwIYQiVZM9VkuceOl17qkKCVE+6BDHCGADEhhCGY9IKSASxAXUNX4MGME+XcxHEACAWhDAckXYwIoj1KZHer24IYgCQBEIYOkwFIoLYoLr0WMUqjccAgOFCCIPLdBAiiPXAll4oesMAYCCEMCBLjgWftHunAo9HEAOAvhHCYE0vFL1hvTI1PMiwJADEgRA25GwLPgSxE9ja60RvGAD0hRAGZJLp3ih6wwBgUISwIWZrrxO9YSFs722iNwwAekYIAzLHll4oesOA4bMl1VpJSrWqsxaz/S1Zqcd+VqsRwoAuVI+ct8B+fL+ADNtfkem35mRxX28PCUIYEBDWkNO424vvF4CsOjGENVampTS9Ig29DeTdaQ03Dbtd+H4BabsgE+edD+cnnDUM6oQQtiXXF+t6HXlje+NE4+lzZNI787CAzNnfkurbah6VWqalWm+0h9/U9ruHc6Aa9Wk918p/vLPtG6Jr7K34Pucsbzvn2+veVRL1+K131eenZWW/ISvvquvwjq/KypHjx2TcDWHjztqhxl5Vpv2P49a5FakTx637rUVxE8d7c+7XT6vnyHF4Xe7moR6fv+j1patrCGusXBNZXpay3gbyLmrwIyD6+UJhyu+Q5PuFTNBznVbv6W0naqzennJCxq7ePm7jXd/xqsdptL2qQsbUzUXfuRz3nPPddM7nCyOeXo9X17b41pQsvufrgLm3Kos3Lx8JQZXnm9J8vqK3vMdZlbr/cdw652Tq7fRH07o9f1HrS1N4CGusyOXdq1K7pLcBAECPGrLyTruHp/zUmmxXnfDiLNsvzkv9PSe0tA8KWJXV98qy/Er72ObLC+0ep72qTN12vuL8vKy9st3+nFpeWZP58068eG9OqnvuCdp6Pb7DeewXveO3ZVn1eqnw0vVdi1tyXT2O+jrvmvXjuF97b11unRJwxsqbzvG608d5ntTXb5b9/Wy96PL8dfRaX7JCQpjzQ3N5XWavHKZcAADQo/1bsq56ZM4vy43nK50wMDZek+2L3ceZyhdvyEKn96Zta2/V+b8TIF6oSWXUFytGK1J72QlWzurq3mGQ6PV4j/vY450rlYVPqyMj2vf1eTmPs/CyCjqbx2pJWtjz5xmovgQcC2GNlcuyPutcpO97BgyD1p039drJoh6HZPH9gvX2d9u9YJ+4FOiNUUFstt3zE2LSH5pcDdlzh9fUcJo318m/zImKXHJvTw/99Xq8pyyznYCijU50vc62isw8pT46j3Vzqn1+Ne9MzQczNMR3/Pnz9FNfsgIhrD0Zv77oPJEl54mcWpR6fVGmeIdk7tjeMNFw+vyp/7ko6I+28F3PkesEEJ+7sntkvlUX93adI5Vejx9M5fltWXvKF2XUvDM1H0wFwLcTuKlrjgRCWEVqzaY0vWV7WcrlZdneDI6pAvl0WvgjHNqF7xeGg74thMzLmjfnKnSpOa14P8cPaswJYpvuObfVXLCn5qXsPr7j3qrMhb4JAEr4xHxgiKmGO9h4h+2DHfh+wVp6qKv+zVvHRpMae+vuUGU0+rYQsioboZPpg3o9Pj5jai7Y8zXZVPPBXll2554dH/bsVV12A0ObvT1/9jo5hI0tyCa9YBhSXkNOY54NfL9gndFLMqvC0L1Fufzu4T2z1D21LrvvKIyuMt6eQL56M3ifr4ZsuffHKh25Z1avx/fNu1+XGnYMBqX93fbcs54cDWwXRtvDnKt/eDgtSt37rNfnz1b0hAFZYPt8K+aDASHGZOGF9q0X1C0hptxJ8aX2PbXaB0Q3XtPzrtr3+WpPsFfLlMy5gWRe1nz37ur5+H6NLshVNTFfDTsG3gSg6lST4Zdf6KEz571F93nybtbaeQODE2QPn79FETXk6R6RbYSwIWZrjwE9GaexZXK+bW8SACzkhJRNfW+uDnXvrhd7vxm6mnel7jHWmW/lKut7kB2f39Xr8f1SN289/jjOIz21LGuvRLxFhfM83bh4GKzq+/otA+7zt+x7/soyf3FbNssTejvbCs++9Grr5pe+qDejUe+cVPLyB1SCTUleQkDwTuFhddl4N/HTnv8odWXRqXUduyO9yd/AwG/NCT1hQ/v9yqi816XedGaFvaqUbq5K2Q0UTPoZRs995jl6woadbS+weXnBT4StQ34MRQLhvPlSgb//6P4tyT9sz5bqfk8rDANCGKwJPgSwXpkaDmQYEojEm5gvgflS3t+SfGpNauPq8xhWhDAgS471OqUdiKIPQwIYk4WX2zcyPTL/63xZ5tXfL4xjYjwyjRAGl+leKHrBemBL8CGAARG0b2S66b9J6subUgv++RwMJUIYOkwFIQLYoFTvVNI9Ymk8BgAMF0IYjkg7EBHA+hTaC5VUSAo5L71gADAwQhiOSSsYEcAG1DWIxRXGupyLAAYAsSCEIZQKSEmFpCTPPXRUIEqkV6xL+CKAAUBsCGE4UdxhifCVkK5BLLiEiXAc4QsAYkcIw6ni6LmK4xw4RaSeqgiByy/SOQEA/SCEITIvSPmXMFGPQ0LiCE6ELwBIHCEMAyFwWcwLUv4lTNTjAACxIoQBw4TABQDWIIQBAAAYQAgDAAAwgBAGAABgACEMAADAgMKzL73auvmlL+rNaEqlkl4DACA7ms2mXgPMeu4zz9ETBgAAYAIhDAAAwABCGAAAgAEDzQnLy93RC0+/ptfaqMtu1JUt1JUtwbpkSX/MOl0Hc8JgC+aEAQAAGFJs6RUAAACkp1jQK0iW6uIPLgBwkty+bqihweACDCHmhDmCL2yD1jXIC2Wcz2ncddmCurKFuqIJnk9ptY6PVRQKx//pHOdzeuw6Bg1IIV8fta5Yw5k+F3PCYAt3TtiBPNKbGJR68Qp7Ie1FHOcAkB3e77wKJsElTNhxVr5uqNDjLGHXGyb0OH0OIK+K93/wHb2KQcT9AmjdCyqA2PnD1yC8c1jzuuELX4PonIMghpwqHjwa7Jdk2KkXvaRe+JI8NwBzvN/tQUNKkDqf0dcN3XOVRF3euYE8KX6k+Nf0KnqV1gudsRdUALHzwlfcQcXjnTv11w0dvpKuiyCGPCm2Dg70KnqR9gscQQzIPi+ApUE9TmqvGwn0fnVDEEOeFNP6xckTU4GIIAZkV5oBzJNKEEsxgHkIYsgL7pjfI9NBiCAGZI+JAOZJNIgZCGAeghjywAlh3K4VAAAgbcUi98yPzJZeKHrDgOww2QvmSaQ3zGAvmIfeMGRdsTgyoldxEtuCD0EMsJ8NAcwTaxCzIIB5CGLIsqJDrwIAACAtxWLY3+vCEbb2OtEbBtjLpl4wTyy9YRb1gnnoDUNW0Q0GAABgQFHoCQNCqR4Db8kT6gIAOxTv/3BfrwJQwhryPDTu1AUAdin+4OB7evVQY2VaSqWSXqqypfcDeXdaw53Vhp26AMA+xULh+C0q7u7WZX6tKc2mWmpS0fuHke0v4jQygH3U76Vtk9c9A03Ot3BSvofJ+ciiYkHCfqHKMnFBrwJDImrDlLXgS13ZqgvA8Cge/0dNQ/Z26rI41R6OnF5p6P0AAACIS/H4n44ck4VNbyhyTSYXLws5DAAAIF6n3CesIjPzdVm/RQpD/rXuvKnXThb1OFtQV7bqAjA8It2sdXJ8TK8NH9tfwGlgAPuo38uCpfdgVNfV9+vGUvvrbeReFxPzkTFFaZ3wC9VYkWurTNLH8Ditccpq6KUuALBPUQoHetWzJVXvHmFTizK5tikLw9sRhiGkGu5g4x22L2uoCwDsUpRW8D5hFam5k/LbS22YbxKGoeY15HlrzKkLAOxQ/OjZv65XAQAAkJZisXBGr6IbW/9lzb/4AXup30/bJrEPNCnfY+HkfCblI6uKoTfMBwAAQKIi3aIC9vU60QsG2M+m3rBYesE8FvWG0QuGLAu5Yz66sSX4EMCA7LAhiMUawDwWBDECGLKueHAQvEUFAAAAklZ88P3v61VEYboXil4wIHtM9oYl0gvmMdgbRi8Y8qB49uxZvYqoTAUhAhiQXSaCWKIBzGMgiBHAkBfFkTPcoqIfaQciAhiQfWkGsVQCmCfFIEYAQ54UHXoVvUrrBY4ABuSHF8SSCi3euVN/3dBBLOm6CGDIExLYgNQLXVIvdkmeG4A53u923IFFnc/o64YKSAn0inXCFwEMOVN89OiRXsUg4n7RM/YiCiA1XhAbNLR457DmdUMHsbjqInwhr4qtFrfMj4t6ARz0RTCOcwDIDu933gsc/iVM2HFWvm7onquw6w0Tepw+B5BXhU/9o3/WuvXl39Sb0ZRKJfdjXsJC4enX9FpbEnUFH0NJ+vlLoy4TqCtbqKt/wcdQkn7+jj1mEiEo7JxJhy19/maz2V4BDHvuM8+pOWH0hKVBvXAGFwA4SW5fN1QgCi7AEOIWFQAAAAYUhTlhAAAAqeMWFQAAAAYUCwVyGAAAQNqKDx59V68CAAAgLYXy7D9tbf7739Kb0Xi3qAAAIEu4RQVs4d6i4iMjj+tNAAAApKXIeyMBAADSVxzsL3sBAACgH4VnX3q1dfNLX9Sb0fBni7KBurKFurIlWFdu7voerCNndTEnDLbQf7YIAAAAaSOEAQAAGEAIA5B5amgwuACA7QhhADIlLHC1Wq1jS9hxAGATQhiATPCCVFjgChN2HGEMgE0IYQCs5w9fg/CHMQAwrSgHj/QqANjF67kaNHwFeUGMMAbAlIODAyl+8u+M6k0AsIcXvuIOYB7v3AQxACZ89h9+luFIAPZJoverG4IYAFMIYQCskmYA8xDEAJhACANgDRMBzEMQA5A2QhgAAIABhDAAVjDZC+ahNwxAmghhAIyzIYB5CGIA0kIIAwAAMIAQBsAom3rBPPSGAUgDIQwAAMAAQhgAAIABhDAAAAADuoawrWpJSiW1TMtKQ+8EAABALEJDmApg1ya2pdlsOsumLIzpTwBAjGyclO9hcj6ApBWPv/xtycbOstwgeQEAACSm+J/u/F+9qm1tyOrkrlx3hyKdZXpFGI0EAACIV/HJHzmjV31Wd2RiWw1FNmVtclEuMykMAAAgVsV/cGFUr/rMX+3MA6vMzEt99257AwAAALEojhQKehUA0tW686YULH0NUtelrg8AknL83ZGVGZlfvaZvS9GQlWurMj9TcT8FAACAeITcoqIite1ZWZ9SE/OnZHFyTWpkMAAAgFiF36x1bEE23XuEOQsJDAAAIHbFh4/svFEiAABAnhX/y7fe16sAkD4bJ+czKR9A0t599w+lOFLk3ZEAAABpOjg4kOL0J35UbwKAGTb1htELBiANL7xwscvEfABImQ1BjAAGIE2EMAAAAAMIYQCsYbI3jF4wAGkjhAGwiokgRgADYAIhDIB10gxiBDAAphDCAFjJC2JJhTHv3AQwAKYQwgBYSwWkJHrFvPBFAANgEiEMgPW8IDZoGPPOQfgCYANCGIBM8HquvCDlX8KEHeedAwBsQAgDkClekPIvJwUu/wIANiGEAcg8AheALCKEAQAAGFD88+/+UK8CAAAgLcW7f3JHrwIAACAtxb/7I9/RqwAAAEhL8W/+7Sf1KgAAANJSqL72M62la/9Ob0ZTKpX0GgAA2dFsNvUaYNbS0pIUZeSM3gQAAEBaivLgr/QqAAAA0lL8zvv/T68CAAAgLYXP/sRPtP7z7/2e3ozGmxOWl7tSF55+Ta+1UZfdqCtbgnXJkv6YdcE6qMtuug7mhMEW7pyw7z35cb0JAACANPyP7T+S4k89/bf0JgAAANLw3b96IMUzBb0FALCLGkILLnmQ17qAHvy9Zz/LH/AGACuEBJNWq3VsCTvOaiHXm4u6gEEV1C0qAADm6MARGkxChB5nY2jJa11AjAhhAGCKL6QM4khosUFe6wJiRggDgLSpUKGDSpw6gcVUaMlrXUBCCGEAkCYdUuIOKp7OudMOLHmtC0gQIQwA0qKDShpSDSx5rQtIGCEMANKQYlDxpBJY8loXkAJCGAAkzUBQ8SQaWPJaF5ASQhgAAIABhDAASJLB3iJPIr1Gea0LSBEhDACSYkFQ8cQaWPJaF5AyQhgAAIABhDAASIJFvUWeWHqN8loXYAAhDAAAwABCGAAAgAGEMAAAAAOOhbDGyrSUSqXAUpUt/XkAAAAM7lgIG1vYlGaz2Vm2l8tSXr4iFf15AMApLJy87hloEnte6wIMOWU4ckuuL07K1YUxvQ0AAIA4nBzCtjZkh14wAACA2J0Qwhqycm1HZi/RCwYAABC37iGscUvWJ68KI5EAAADx6xrCGrfWZXKGgUgA6NmSSKFQ0Bt2ca9rgIn5uawLMKRLCGuIk8Fk4oLeBAAAQKy6hLC7sluflHGGIgEAABLRJYRVpNas8a5IAACAhHSfmA8AAIDEEMIAIAkWTmKPZfJ6XusCDCCEAQAAGEAIA4CkWNRrFGtvUV7rAlJGCAOAJFkQWBIJKnmtC0gRIQwAAMAAQhgAJM1gr1GivUV5rQtICSEMANJgILCkElTyWheQAkIYAKQlxcCSalDJa11AwghhAJAmHViSCi2dc6cdVPJaF5AgQhgApE0FCR1a4tQJKaaCSl7rAhJCCAMAU3RgGTS0dM5hS0jJa11AzAhhAGCSChi+0OJfwoQep89hlbzWBcSIEAYANvACh285MZj4F5uFXG8u6gJiQAgDAFvlNZjktS6gR4QwAAAAAwhhAAAABhDCAAAADCCEAQAAGEAIAwAAMKBQrVZbS0u9vTWlVCrpNQAAsqPZbOo1wCyVvegJAwAAMIAQBgAAYAAhDAAAwICB5oS17rzpfsy6wtOv6bU26rLbsNSVm7uIB+ugLrvlvC7mhMEWzAkDAAAwhBAGAABgACEMGCZqSCa45AF1ZUte6wJ6xJwwB3OnsoU5YRGFfH2r1dJrhwqFgl7zibNRDJ6LusJRl17zSaAu5oTBFswJA/JINTbOohq64BIm9Dh9DqtQlyv0OOoCMokQBuSJr9EbxJFG0AbUdSLqArKJEAbkgWqkdMMXp04DaKoRpK6eUBeQLYQwIOt0oxd3w+fpnDvtBpC6+kJdQHYQwoAs0w1fGlJtAKlrYNQF2I8QBmRVig2fJ5UGkLpiQ12A3QhhQBYZaPg8iTaA1BU76gLsRQgDAAAwgBAGZI3B3gdPIr0Q1JUY6gLsRAgDssSChs8TawNIXYmjLsA+hDAAAAADCGFAVljU++CJpReCulJDXYBdCGEAAAAGEMIAAAAMIIQBAAAYUHz//ff1qs9WVUqlkrtMrzT0TgAAAMRB5a/imTNn9KZnS6pzO7K83ZRmc00mFy8LOQwwzMLJ0J6BJkVTV+qoC7CDyl/HQ1hjT3bKs3JpTG1UZGa+Lrt33c8AAAAgBuEhbOySzMq63HJ7v7ZkY3VeZiruZwAAABADN4SNjIzoTc+YLNxwYtiUmhM2J7JWEzIYAABAfFT+Kjr0ptZYkenLIjeaak5YU2Y2SlLd0p8DAADAwFT+KhYKBb3Z1ri1LjJ7SdwpYY7KzLysbpDCAKOWRIK/q7Zwr2uAid7UlS7qAuygfmaPhbCx8Umpr98S7w2RWxurUp64oLcAAAAwKDeE6fVDlZpsz67LlL5P2JysyeaC1y8GAACAOITeMX9sYdOdD+YuNablAwAAxI0/WwQAAGAAIQzICgsnRccyGZq6UkNdgF0IYQAAAAYQwoAssagXItbeB+pKHHUB9iGEAVljQQOYSMNHXYmhLsBOhDAAAAADCGFAFhnshUi094G6YkddgL0IYUBWGWgAU2n4qCs21AXYjRAGZFmKDWCqDR91DYy6APsRwoCs0w1gUo1g59xpN3zU1RfqArKDEAbkgWqYdCMYp06jZ6rho66eUBeQLYQwIE90AzhoI9g5hy2NHnWdiLqAbCKEAXmjGixfI+hfwoQep89hFepyhR5HXUAmFarVamtpqbef8lKp5H5s3XnT/Zh1hadf02tt1GW3YakrkcYn7JxJN3LB81NXdNQVH33+ZrPZXgEMU9mLnjBgmKiGKLjkAXVlS17rAnpECAMAADCAEAYAAGAAIQwAAMAAQhgAAIABhDAAAAADBrpFBQAAWcItKmCLpaUl+f87IJz21s2zbQAAAABJRU5ErkJggg==;" vertex="1" parent="1">
          <mxGeometry x="573" y="741.9966666666668" width="609" height="484" as="geometry" />
        </mxCell>
        <mxCell id="5DEDQGz0tck6MsNurVrF-22" value="&lt;font style=&quot;font-size: 14px;&quot;&gt;Selected piece&lt;/font&gt;" style="text;html=1;align=center;verticalAlign=middle;resizable=0;points=[[0.06,0.22,0,0,0],[0.2,0.11,0,0,0],[0.38,0.06,0,0,0]];autosize=1;strokeColor=none;fillColor=none;labelBackgroundColor=default;fontSize=17;" vertex="1" parent="1">
          <mxGeometry x="777" y="998" width="110" height="32" as="geometry" />
        </mxCell>
        <mxCell id="5DEDQGz0tck6MsNurVrF-23" value="Possible moves are represented&amp;nbsp;&lt;div&gt;by the dots, see last demo&lt;/div&gt;" style="text;html=1;align=center;verticalAlign=middle;resizable=0;points=[[0.06,0.22,0,0,0],[0.2,0.11,0,0,0],[0.38,0.06,0,0,0]];autosize=1;strokeColor=none;fillColor=none;labelBackgroundColor=default;fontSize=17;" vertex="1" parent="1">
          <mxGeometry x="587" y="1076" width="267" height="53" as="geometry" />
        </mxCell>
        <mxCell id="5DEDQGz0tck6MsNurVrF-25" value="" style="shape=curlyBracket;whiteSpace=wrap;html=1;rounded=1;flipH=1;labelPosition=center;verticalLabelPosition=middle;align=center;verticalAlign=middle;rotation=90;horizontal=0;size=0.5;labelBackgroundColor=none;" vertex="1" parent="1">
          <mxGeometry x="785.5" y="1027" width="29" height="431" as="geometry" />
        </mxCell>
        <mxCell id="5DEDQGz0tck6MsNurVrF-26" value="Game Board" style="text;html=1;align=center;verticalAlign=middle;resizable=0;points=[];autosize=1;strokeColor=none;fillColor=none;" vertex="1" parent="1">
          <mxGeometry x="759" y="1254.5" width="86" height="26" as="geometry" />
        </mxCell>
        <mxCell id="5DEDQGz0tck6MsNurVrF-27" value="Score Display" style="shape=curlyBracket;whiteSpace=wrap;html=1;rounded=1;flipH=1;labelPosition=right;verticalLabelPosition=middle;align=left;verticalAlign=middle;" vertex="1" parent="1">
          <mxGeometry x="1190" y="775" width="20" height="158" as="geometry" />
        </mxCell>
        <mxCell id="5DEDQGz0tck6MsNurVrF-28" value="Player&#39;s turn, notice it is green&#39;s turn" style="shape=curlyBracket;whiteSpace=wrap;html=1;rounded=1;flipH=1;labelPosition=right;verticalLabelPosition=middle;align=left;verticalAlign=middle;" vertex="1" parent="1">
          <mxGeometry x="1184" y="958" width="20" height="55" as="geometry" />
        </mxCell>
        <UserObject label="&lt;b style=&quot;font-weight:normal;&quot; id=&quot;docs-internal-guid-fe73d21b-7fff-e06e-ddf6-3e6b50460251&quot;&gt;&lt;span style=&quot;font-size:11pt;font-family:Arial,sans-serif;color:#000000;background-color:transparent;font-weight:400;font-style:normal;font-variant:normal;text-decoration:none;vertical-align:baseline;white-space:pre;white-space:pre-wrap;&quot;&gt;&lt;span style=&quot;border:none;display:inline-block;overflow:hidden;width:604px;height:485px;&quot;&gt;&lt;img src=&quot;https://lh7-rt.googleusercontent.com/docsz/AD_4nXcbTc7VirNjHOXNhiMtCmm4HQEjoAAZ6WOg2xhBJelOdMPlPH8gIj_j7bbWp3_bnNyaiO8maciEMNJgmwODvnstLiS29d9EZFIjpdU8o6UukutZOMBeQVvE2fYLSGeOp-bcjcwc3g?key=oMqultBtaqeFnVKXY1hwaT-V&quot; width=&quot;604&quot; height=&quot;485&quot; style=&quot;margin-left:0px;margin-top:0px;&quot;&gt;&lt;/span&gt;&lt;/span&gt;&lt;/b&gt;" link="&lt;b style=&quot;font-weight:normal;&quot; id=&quot;docs-internal-guid-fe73d21b-7fff-e06e-ddf6-3e6b50460251&quot;&gt;&lt;span style=&quot;font-size:11pt;font-family:Arial,sans-serif;color:#000000;background-color:transparent;font-weight:400;font-style:normal;font-variant:normal;text-decoration:none;vertical-align:baseline;white-space:pre;white-space:pre-wrap;&quot;&gt;&lt;span style=&quot;border:none;display:inline-block;overflow:hidden;width:604px;height:485px;&quot;&gt;&lt;img src=&quot;https://lh7-rt.googleusercontent.com/docsz/AD_4nXcbTc7VirNjHOXNhiMtCmm4HQEjoAAZ6WOg2xhBJelOdMPlPH8gIj_j7bbWp3_bnNyaiO8maciEMNJgmwODvnstLiS29d9EZFIjpdU8o6UukutZOMBeQVvE2fYLSGeOp-bcjcwc3g?key=oMqultBtaqeFnVKXY1hwaT-V&quot; width=&quot;604&quot; height=&quot;485&quot; style=&quot;margin-left:0px;margin-top:0px;&quot;&gt;&lt;/span&gt;&lt;/span&gt;&lt;/b&gt;" id="5DEDQGz0tck6MsNurVrF-29">
          <mxCell style="text;whiteSpace=wrap;html=1;" vertex="1" parent="1">
            <mxGeometry x="1418.0023529411765" y="761.9964705882353" width="550" height="512" as="geometry" />
          </mxCell>
        </UserObject>
        <mxCell id="5DEDQGz0tck6MsNurVrF-30" value="" style="shape=curlyBracket;whiteSpace=wrap;html=1;rounded=1;flipH=1;labelPosition=center;verticalLabelPosition=middle;align=center;verticalAlign=middle;rotation=90;horizontal=0;size=0.5;labelBackgroundColor=none;" vertex="1" parent="1">
          <mxGeometry x="1635.5" y="1056" width="29" height="431" as="geometry" />
        </mxCell>
        <mxCell id="5DEDQGz0tck6MsNurVrF-31" value="Game Board" style="text;html=1;align=center;verticalAlign=middle;resizable=0;points=[];autosize=1;strokeColor=none;fillColor=none;" vertex="1" parent="1">
          <mxGeometry x="1609" y="1283.5" width="86" height="26" as="geometry" />
        </mxCell>
        <mxCell id="5DEDQGz0tck6MsNurVrF-32" value="Green just went, so it is red&#39;s turn" style="shape=curlyBracket;whiteSpace=wrap;html=1;rounded=1;flipH=1;labelPosition=right;verticalLabelPosition=middle;align=left;verticalAlign=middle;" vertex="1" parent="1">
          <mxGeometry x="2028" y="986.5" width="20" height="55" as="geometry" />
        </mxCell>
        <mxCell id="5DEDQGz0tck6MsNurVrF-33" value="Score Display, notice green&#39;s updated score /goals left" style="shape=curlyBracket;whiteSpace=wrap;html=1;rounded=1;flipH=1;labelPosition=right;verticalLabelPosition=middle;align=left;verticalAlign=middle;" vertex="1" parent="1">
          <mxGeometry x="2028" y="804.5" width="20" height="158" as="geometry" />
        </mxCell>
        <mxCell id="5DEDQGz0tck6MsNurVrF-36" value="&lt;font style=&quot;font-size: 14px;&quot;&gt;Piece is in goal, look at score update&lt;/font&gt;" style="text;html=1;align=center;verticalAlign=middle;resizable=0;points=[[0.06,0.22,0,0,0],[0.2,0.11,0,0,0],[0.38,0.06,0,0,0]];autosize=1;strokeColor=none;fillColor=none;labelBackgroundColor=default;fontSize=17;" vertex="1" parent="1">
          <mxGeometry x="1452" y="922" width="246" height="32" as="geometry" />
        </mxCell>
        <UserObject label="&lt;b style=&quot;font-weight:normal;&quot; id=&quot;docs-internal-guid-6a82b088-7fff-2e74-4399-ea8082a52ca4&quot;&gt;&lt;span style=&quot;font-size:11pt;font-family:Arial,sans-serif;color:#000000;background-color:transparent;font-weight:400;font-style:normal;font-variant:normal;text-decoration:none;vertical-align:baseline;white-space:pre;white-space:pre-wrap;&quot;&gt;&lt;span style=&quot;border:none;display:inline-block;overflow:hidden;width:603px;height:481px;&quot;&gt;&lt;img src=&quot;https://lh7-rt.googleusercontent.com/docsz/AD_4nXeQY3fkU0W_G-QxAZNmyn9OB3asO19jYPr4BetrHjdZswRT08b4WZO0DopmpZVI7ZpybXpX_C6SYyZW94hOfIIffkvJLnND6U4VX76WmzknuPLWUsnogYCGQrG3GV9g8n4lv8mHZQ?key=oMqultBtaqeFnVKXY1hwaT-V&quot; width=&quot;603&quot; height=&quot;481&quot; style=&quot;margin-left:0px;margin-top:0px;&quot;&gt;&lt;/span&gt;&lt;/span&gt;&lt;/b&gt;" link="&lt;b style=&quot;font-weight:normal;&quot; id=&quot;docs-internal-guid-6a82b088-7fff-2e74-4399-ea8082a52ca4&quot;&gt;&lt;span style=&quot;font-size:11pt;font-family:Arial,sans-serif;color:#000000;background-color:transparent;font-weight:400;font-style:normal;font-variant:normal;text-decoration:none;vertical-align:baseline;white-space:pre;white-space:pre-wrap;&quot;&gt;&lt;span style=&quot;border:none;display:inline-block;overflow:hidden;width:603px;height:481px;&quot;&gt;&lt;img src=&quot;https://lh7-rt.googleusercontent.com/docsz/AD_4nXeQY3fkU0W_G-QxAZNmyn9OB3asO19jYPr4BetrHjdZswRT08b4WZO0DopmpZVI7ZpybXpX_C6SYyZW94hOfIIffkvJLnND6U4VX76WmzknuPLWUsnogYCGQrG3GV9g8n4lv8mHZQ?key=oMqultBtaqeFnVKXY1hwaT-V&quot; width=&quot;603&quot; height=&quot;481&quot; style=&quot;margin-left:0px;margin-top:0px;&quot;&gt;&lt;/span&gt;&lt;/span&gt;&lt;/b&gt;" id="5DEDQGz0tck6MsNurVrF-37">
          <mxCell style="text;whiteSpace=wrap;html=1;" vertex="1" parent="1">
            <mxGeometry x="1073.9982352941176" y="1394.0011764705882" width="550" height="508" as="geometry" />
          </mxCell>
        </UserObject>
        <mxCell id="5DEDQGz0tck6MsNurVrF-38" value="&lt;font style=&quot;font-size: 14px;&quot;&gt;Piece selected, notice the complex&lt;/font&gt;&lt;div&gt;&lt;font style=&quot;font-size: 14px;&quot;&gt;jump sequences&lt;/font&gt;&lt;/div&gt;" style="text;html=1;align=center;verticalAlign=middle;resizable=0;points=[[0.06,0.22,0,0,0],[0.2,0.11,0,0,0],[0.38,0.06,0,0,0]];autosize=1;strokeColor=none;fillColor=none;labelBackgroundColor=default;fontSize=17;" vertex="1" parent="1">
          <mxGeometry x="1121" y="1494" width="234" height="53" as="geometry" />
        </mxCell>
        <mxCell id="5DEDQGz0tck6MsNurVrF-39" value="Player&#39;s turn" style="shape=curlyBracket;whiteSpace=wrap;html=1;rounded=1;flipH=1;labelPosition=right;verticalLabelPosition=middle;align=left;verticalAlign=middle;" vertex="1" parent="1">
          <mxGeometry x="1695" y="1618" width="20" height="55" as="geometry" />
        </mxCell>
        <mxCell id="5DEDQGz0tck6MsNurVrF-40" value="Score Display, notice the updated scores" style="shape=curlyBracket;whiteSpace=wrap;html=1;rounded=1;flipH=1;labelPosition=right;verticalLabelPosition=middle;align=left;verticalAlign=middle;" vertex="1" parent="1">
          <mxGeometry x="1695" y="1436" width="20" height="158" as="geometry" />
        </mxCell>
        <mxCell id="5DEDQGz0tck6MsNurVrF-42" value="" style="shape=curlyBracket;whiteSpace=wrap;html=1;rounded=1;flipH=1;labelPosition=center;verticalLabelPosition=middle;align=center;verticalAlign=middle;rotation=90;horizontal=0;size=0.5;labelBackgroundColor=none;" vertex="1" parent="1">
          <mxGeometry x="1291.5" y="1684" width="29" height="431" as="geometry" />
        </mxCell>
        <mxCell id="5DEDQGz0tck6MsNurVrF-43" value="Game Board" style="text;html=1;align=center;verticalAlign=middle;resizable=0;points=[];autosize=1;strokeColor=none;fillColor=none;" vertex="1" parent="1">
          <mxGeometry x="1265" y="1911.5" width="86" height="26" as="geometry" />
        </mxCell>
        <mxCell id="5DEDQGz0tck6MsNurVrF-44" value="" style="shape=image;verticalLabelPosition=bottom;labelBackgroundColor=default;verticalAlign=top;aspect=fixed;imageAspect=0;image=data:image/png,iVBORw0KGgoAAAANSUhEUgAAAlsAAAHlCAYAAADC7TnpAAAAAXNSR0IArs4c6QAAAARnQU1BAACxjwv8YQUAAAAJcEhZcwAADsMAAA7DAcdvqGQAAD8jSURBVHhe7d19bCTnfdjx3w7f7lW3Pl/s2E7SmEfrlLXUIIy7sWn1vy5PMQW0LMICAQSZTirrCLRXFskl2P+CwihbHNLSlz94iVCAFtSgCIswf4i2jkSQvih0tLEZ1LIJUeYt7EaJ00Q5r+R7IY/kbp9n5hlyuNzl7cu87ez3Y4/umdnZmfnN7O7z4/M8O5v68Ed/vHL67Gnp7e2VnpQlfQP9MtDTK329fbKzuyspEbEsS374o/dld2dXzp17TCpq2fb2lpw+eUYGBk5IX1+vPHz4UN57733Z2d6RT3ziE/KhjzwuvQM/Lj39j4klO3Jv6//JD/7mr+X+/S35wQ/ekT55T/b2tqRcfijlnR2xUv3y4Y98VE4MDMiO2tbde3dl4ES/nDgxICdPnJSBPnVcvZY8dvKElB/ckfSZH0rm4yfkwye25K/X12Sv8iHZ2jsl5/rVse/elbIlsts7IANnTkml/4Sk+k/LyZOn5f7WQ7m30y8bt/9Wiv/3B3L+gx+U1OmT8qMHD2V3t1d++mM/Len+HXnyJ++ItXdfxfNAHWNZ7r53V86V1bqVftnbKkt5e1fFtafme2Rnb1e2Hu7I1oNddV4qkipvyf2Hu2pSj/edULE/lN4eve9ddZ525d69e1KupGQ3Vbaf26POb3lvR51/kZ3ynjzY2ZOKPsmK2rXaj0if+k/KvhopqaiF91NO2VLr6ZJL7d2+PmrzDrvgXUOkv+ek9Khj76lsyUBqT07199jnZm9vT13LPklZKXWcW7KlrrF2Sp1zTe1N1ANyT9T52tmWBw+21TGr83H2MTnx4Q/JvVMn5Z7a3llLXU8Vd7+6lr29PfYztR+p15BmH7q9TB3rTp/sqvh3VdxlNVXUOSnvlc3xq4jtgoqqpyK9/X3Sr66lvh79/f1y5sxZ9XhFHm6pY31wX72G1OtXb1Nt5/72Pdmt7KhYLDnx2AfUY85x7KrXtN6k3oZ2Rp3Ac+r1db9iybZ6TNPnQE/antp+Sp3QPvWe0K/5XXWdd9TrdfvhttqGekA9fkId10N7ez32fnp69L4cel/6vLr7U6daXdCU/d7S9PHpWLSyWm9PrWepE7Sr9iG7e3LmMRWjpa6WKtunf2tbHUu/OoZd+9gs9T7VB/jgwQN7G/p9uKteS/r9u7urz6V+gajza/Z3HH2me9Tx69dQuaKea47Zq2JemP3qvak/M+xzpd5z+rjv3b9vX7vt7W05e/asfR4ee+wxOXP2jDy4d1+99+/bz9XbSKkY9f7058dDtf4D/VpTy/U51e//h+pz5KF6/+jPHh2Ppc6Z3vOeLvdY9nOdI1HvGXVN9HtCr6u3u6veUwP9AwfrqEKv+owqq/Nhz6ptmRehvc/9f0zZVdnfg0O/vpx11LGrbejrZF9r9W+vOqbTp8+oc6FeA+oxfW7sa6j0qPKeOv976nWp31enz5yUv/mBc70AdB7vJ4P5JFFM6WCB/qSw5/W/qU8+9cmK/pDSH876X/0hoekPQP0BbVcKasv6A0TTlYOmKxC9vvshpT/k9AePfr5erj5GVUVzWi0/LQMnB9QHjvmgU//rUUnTw+337Qp/b3dH7j+4a39A9qtKS89rzv5UBasrf/089Z9efXzqQ23v4QOVoDyQD6ZPykm13Yfvl+xKxbIG7MSkV9eO6gnq2arS0GW1PZ3J6O3YW9OxqgRRJTX6mFMqKdsup+RHKonaU8mDqmokfWJHHtx9XyWUPaoCuKuOS1cUZ9Ux9KskRVWoqu5LqQpJfYSqx9UH/q7aj9pGRdWues8P1XmrqIprVx2XfYrU/9xzqc+rrlTU6naF5lQj+sM8ZVdaTmWnnmGf3MOcbbmxOFM177Pcdb3c/Xkf7bfPjzpj6nxYqnLXx6Wv8Z46/hOqYtV0brGjrs+eiksnBjrR0edyr0clQSph3VbXfkfVPf0qYVKnxk4iUqqC0kmU3pauEDV7725s6jzqhMSZc/6rX0u6pM+Hfr69XF1TfW56dXKh2H8cqOO0K2G13DmP6tyqJEg/WycLOhmxXzhqPZ2w6O2559T911Lr9epkRgWX0hWnZu/3YLJ3r/7RMdsJlqIrTr1Pve+Kvq72+0YfwfH0MejV7O1qeh9O6YBepqZdlXQ48ZpjUa9/nezpBFbvV1fi26ZCr9jJ0cFrRp8rV8VebmYexV3RPT6P/WNWdLFHHUePSkL1c/T+7Gusn6+PVa1jqfM5oF4D+jidc2euv/7XbEuvb59DVXYft5NOnXDbm3KvmT4Han31P/NUe3+66L5X9Lr2+TXr2vYLzr40bxyNcp9jH7veq/N/Z7ma9P961GeTk6Q7+7Ffk85K9jVwPhd1UBX1x8HB9QGQfKlPj3y68vU//bqZBQAAgF8++cmnxNJN/gAAAAiGZVrWAQAAEABra4uBmgAAAEGx9MB4AAAABMNyv4IOAAAA/1nOV6Xbt7S0JP/8l35Jrv7bXzdLAAAAYLn3nmnVnTt35Itf/KL8+//wJXn21+flW3/xDfMIAAAA2k62fu3Xfk0+/Sv/SX71+or8t//xN/KBD3zAPAIAAABL3zG8VV/4whfkH7/4O3b5y78zb/+r76D8d3/3d3YZAAAkk/4FhUamuNHH9M1vftPMHaUf8/u4Lfd32Zqlf4ttc3PDLv+735iWDz/1jFS+9bv2z9/82I/9mL38eF+TF1OflS9vmtl99ZZ7NbIOAAAIku4dO26Ko2984xvymc8+XTPh0sv0Y3odPzk/dNiCF198Ub5wfdkuf/9//xf73x++/Sdy48YNuwwAABA3P//zPy9f/9PXjyRcbqKlH9Pr+Mna2toyxcbdvn1b3nzzW3b5Vz9zVnIz37XLQ0NDDbZqAQAARKM64Qoy0dJa6kacm5uTfz33uplz3HvjP0sridujfO1FT9/vi18zS71Ml+LXviyfNevp1Ta//Nn9533W09/46O0BAICk8yZcQSZamtXX32uKjfv+979v/+u2alXKZdn5qz+XP/zDP7SXN25Vpj/hSX7s6XPye+ZR7Rd/1+37/ap88fe+VGecltrOl0S+otf76hfl9z6Xks/LV5znqfnV6esqJXM0tj0AAMJzuB6sP6EzqWSr+ZYtPQje673VWcnlcmJZzQ4BG5HZ77rJjycJMo/avvaieZEdTsIOU9v5yr+RIV38xX+mnj8i/2LMnjPz35a33aSqoe0BABCew/Vg/Qn+8XYdersUg2BVys1fPJ1s/cqnz5g5kf7St+RLX/qSmfPR5pfls58T+ar9IvuuzI6Y5a3ye3sAAKDjVI/Rqh7D5TerUimbYuO+973vyXO/+i/t8p//x6z89m//djDNm99dl9WRjHxClzeX5A9W7aWt83t7AACgo9QbDB9kwmWlpPmWrZs3b8q3v+ncg+I3f/M35Bd+4Rfssu9+8ZrMyrR8Qnf7fX5dnmy3Jcrv7QEA0MXcsWT1pjj61Kc+dSTRcrkJl17HT6nPfCZbWV19w8w27r333pN0Ok0fMgAAQB2f/ORTrd/U9MSJE6YEAACAelpOtgYGBuT3f//3zRwAAABqsSotjNly/fIv/7IpAQAAoBZrb2/PFAEAAOA3q1xu/tYPAAAAaIxKtvg2IQAAQFAsbt0AAAAQnJa/jQgAAIBHa+m3EQEAANAYuhEBAAAClPq5n/vZyp/8yf80swAAAPDLyMjT3PoBAAAgSFa5QrIFAAAQFKvMHeQBAAACYw30pkwRAAAAfrN+NjNkigAAAPCbdWqgxxQRrBWZTo/KXNHMosNw/TrGyrSk02lJj84JlyuueD81b0VOqdf1Oc90asU81DC9jVEZqHXe1fvmYNvT0mcWh68oA6PtxBhPliXcZwtAUqhKfGJeJhdKUlqekkGzFEiGrGytleS9kpoWJqVvwqekqDgnZyZE7uvt6mntkliRJTm3pXzNPY4ZsfyKMWJWijvIA0iUrFy6aIpAUuXGZEfWxfKjdfD2hvRkL8n+1+UGp2Q7Z8qhy8mOu+/BIUnK/RKsVExbtlam005XgJ6mE9KOqN2ek1ET12ii2tCLMjd6cM0SccnUX3sH12rTLEwIT2zp9LQk4x2mu6YmZF4Kkh9O0Pvr0OtwLlndb4n9PAzBypL0Zcdlx22+1a1T6jwe6Qb0LD9T73NMJ26FvJyqeQ3qdOsd2p+3u8/pqjw1PaqWm+OodWy623J07vgfaNYxTuqksvNZEtOf68nNlqRU0tOCTM5fT8iHi6oErovc1HGtzYjkryQkLp1oDcvi+Jq5ZiWZjeyvIr+oins4LxndHaXiuSmLqhJPCh3booyvmffYgsj1RLwQczKrPy8kKzMqtuWpJHQiJvl16Pk8XJiUQv6GihbHK8gJ9YeEnbQsjcl7y1Om5UclOOo9vbPfxSgyYL+n9fK8lNXrRy+/r14/tbvkcnK/tCY7i8NViZNOtIalT32229vV27A/2w9v1+nu844FK4h16aZ6bFYlSvWOrT5rTidqJsbOr0xslm7biiV3kKv9l2pSqErgphlHMjgl1yYLsnHbfqCzFW/JYmFSriWicjOKm7KenZGr5n0+OHVNVeIJoWMzrT/2e2xiXgqJeCEmUJJfh97Pw9yYimtdNhPxx2eQzJgtldzszS95Wq82VWXuScTUe7pHv6f1cvX62TKvn7J6/dRvJRqU7WU3cTIJl/ps71Of7dvVn+32/iY93X1Tsq3qs579j5Gs7Fw2z6l3bLlZT7J4WHlq2UnMxpbUc+oM6O8wVizbtXSz+YTIgjrZJZVtz2TN8kQpyua6KQKhmzTvLzMl5K9HoCuo5Ob+zHpVC9HkwQB3PbX6nra3nZW+JT/bGVs8NpWQ3T+UxHWuY7tLI3N7QwrZS2KPcbVbTeylCVCQxVvmzWFag8aSUMcNXpbx7HxCuqKMwSHJFPJyw3zeFOeuJ6eFVcemoknU9UqqJL8O0RbdSlXOX3FafeyB5PNHu+f0cvX6OWFeP5Z6/dTsRlyZ87QeFaVPVbp7+lsm6rN9R32219yu2l+fm48V1fPnPS1dXvWOrd6YrZUVzzGq8nxW9hLwhRerXLMRL2K5qzIjeRnWXRxXNiSTmJatrGQ2rjhdN/Y4jFlJRnvCoEwtL0gmP2y6fpMwQD4nswuTMj/hxHNFxtXfZkmhYrPHDB5cr0R9CSVRkvw6RHtysqXexieu6IQlJ/fNe9ruqtOT/Z5Wy+1bRDjLTqnXT81uxNyQ9LjdfOlhOZFZkLt216HuWlxQSd3Bdp3xXM7+dHejvdwek6XHZ9VS79jquLgpA+56ad3FtSzbCRihkvpXnx+rfOnL/9XMAgBiSw+xGN6Qa6Wk/KEGJN/IyNNiVVL8NiIAdIKVG/mDIRYAOoa1U9m/jRkAIFYO379uYn5SFrgzPtBxrD0atgAgpvR4SM+3Ruk+BDqSlZRb4QMAAMSRVaYbEQAAIDCp5z8/Wrnx5T8ws43RYwcAAOg0ujsWCJP9bUSReP42IgAAQBKknn/+n1Ru3PjvZrYxbstWUtK06u8IEFe8dU1cb75kSp0t9dQLpuQgrnhLely0bCFspmWLryMCAAAEJZ6/jQgAAJAQsRuzpdvZqqckIK7OktS4AADhi7Rlq1aFVqlUjky11ouzWsdLXPFV63iTEBcAIB4iadlyK6paFVottdaLY2VHXI5a6xEXAKBbWamQky1v5dYOb2UXB8R1POICAHSr0LoRdWXkVnB+ciu6qCo74moOcQEAuk0o3Yhu5eZ3Bedytx12RUdcrSEuAEA3sSQVbLLlVnBhCLOiI672ERcAoBsE2o0YZgXnCqOiIy7/EBcAIOmsiuyZor+iqOBcQVZ0xOU/4gIAJJmlagRTBAAAgN+sIP70jrI1wRVEqwJxBYe4AABJZYmUTdEfcajgXH5WdMQVPOICACSRRSUAAAAQHEsq/n0hMU6tCS4/WhWIKzzEBQBIGkv2qAIAAACC4mvLFgAAAA6zKnvx6m4BAABIEqu8WyfZWpmWdHpaVswsAACoUpyTM+m0nHOn0Tn9Nf8Wrcip9KgMFM1sGOzjd/dZb/96uSdGNZ1qOjmove2+6ept1VhP5SPnptVKh47VH9bc6KG4nGla+szjfrFSR24gX5S50bSkl0QmzZJGxHFQsqudwcnEFT7iAtARdOU/vCg7ayV5r+RM9zMb0mMejqeqZGZwSu6WlmV70MzXlZUtN86FSemb8Cch2RlT21ryZFvFTZWsFqTv1kFGZW2uy96li00ca+PKU8v7105PP5rJyt7MVdkxj/vFOnpX00GZWi5JaXbMzAMAgMOKMnAlL+WFw5X/zuys7xV17OTGVIzrYvnRwnTxkuyt6wTLYd1alPLMjMjGbbOkKH2L6rxe9jHDqmtFTuQzsj3l/76scjmerQAAAMRW8Zb0FSZlJ2fma6nqYvR2l+nus/1uK91FdoRK5kZrP9dR3d3mnTfluen955+Z0w/o5RPSJwU5Mezut3o7DVhZkr7suOy4OcmhOD0tXp7lZ+Y2zcIqg5dV4rYoffb+ncRq7/KQlOfVPuwVbktPISNle1+NxKjVOHe6K/JRXbwqLiuAVi3N6unh24gAADQte0nckTgHY388ycCwbvkyXVRrM2JNHCQ1O7Nu19WC7MxfP5rsrNyQE5mF/e6t+8cldTWphGpjzHn+wqT05G+o5CUn9/X+3C7B2WY2ahI0HeOS2u7ylPn9GR2npyt1QVQCpIM5HP99nVDZ61cblHKmID12Q5ZKrEQncTnZmTQtZzqxm9QtabXUilFp6dypBO36emAtaFZ5b9cUAQBAwwoH47OcsT86kTHssUeelq/BKdmedJMKRbe02MmZbmmqQXevzU94WmuapRKqq2bnvnT7mQRNJY17+61OihljtZ+ITcxLj+4C1MuzM7JlDqE8da1ui9H+uC2dWGWG7CRu75LY47b2x2vVVCfGWucuN+tJEGvQLZWZa76OB/Oy/BpLrDeTSsVz+K8+rlbDJK7wEReA2BvUSUGLCYzuXpsQuW+3vKzJVtYs97IHg+sWoSt2EtP8t/8Coo7r/sy6ab1yTZpYzNRUi5lixm31qcRqZ8x5bvnyuMiGSoBaGa/Vwrmzx4qZfQfBEqvXFAEAQGNysjUjcmK4zrfy7GRsXvrcil4lWAPzpqXr9ob0uF2Q9tgvXahNt5jpb8hZm9VZ3UXZy3pbyjytTQHTrVTl/BWn69PEeTj5UvTyQl5OmPituev1j88et5WXU3mRPbcRSz9/Xj1/f7xW8w6du2PHbJmxYvUa0HxgbW0n/nsTAAD4zu46XBA5uAfVhFgzN01XVE7u2+O0zGP2uCbzTcXcVdlSycVZvfzKhpRrtWztdzOm5WzNb8gNyvY1fQsGs/0lqdtNd5geD+UdIN8Kk2he0cmLE6fkh/eP19muWm7fIsJZdkqPxXKeXMOg7Iyrk+AddG8fp/qn7nitYzzy3FXzDsIPRuqf5j5T+crC18xsY9IqAK26S0R33sTxHkeP6r6p7nQirmgRl6Py5kum1NlST71gSg7iirekx1Uqlex/gbCMjDwt1t37W2YWAAAAfrP+/s77ptg+/Ve7/us9Th7VmtAI4goPcQEAksaq1BkuBgAAgPZZPb3+fhsxTq0KfrYmEFfwiAsAkETWmdOnTdE/cajogqjgiCs4xAUASCrr3v0HpggAAAC/Wdu77i87+SvKVoUgWxOIy3/EBQBIMitlBTdAPoqKLowKjrj8Q1wAgKSz9ip1f5bRF2FWdGFWcMTVPuICAHQDa2tr2xSD41Z0QVV27rbDruCIqzXEBQDoJqHdZEtXQG5l5ye3couqgiOu5hAXAKDbWBWfK51HcSu6dis7dxtxqdyI63jEBQDoVpHcPl5XTN7KzjvVUms9dxtxQlyOWusRFwCgW0X6Wz1uReWdjqvQvFOc1Tpe4oqvWsebhLgAAPEQux9GTGqFRlydJalxAQDCF7tkCwAAIEmsk/2nTBEAAAB+o2ULAAAgQCRbAAAAASLZAgAACFAqk3mysrr6upltTDqdNiUAADpHqVQyJSAcIyNP07IFAAAQJJItAACAAJFsAQAABKitMVtJuat29S/hEVe8HYnrzZdMqbOlnnrBlBzEFW/E1VncuBizhbAxZgsAACBgJFsAAAABil2ypbuIqqckIC4AALpTpMlWrYq6UqkcmWqtF2e1jpe4AADoTpEkW24FXKuirqXWenGsxInLUWu9OMYFAEAYQk+2vJV2O7yVeBwQ1/HiFhcAAGEJLdnSlaxbcfvJrcCjqsSJqzlRxwUAQNhCSbbcStvvitvlbjvsCpy4WhNVXAAARCHwZMutuMMQZgVOXO0LMy4AAKISaLIVZsXtCqMCJy7/hBEXAABRCizZiqLidgVZgROX/4KMCwCAqIU2QB4AAKAbBZJsRdlK4gqitYS4ghNEXAAAxIHvyVYcKm6XnxU4cQXPz7gAAIgLuhEBAAAC5GuyFadWEpcfrSXEFR4/4gIAIE5o2QIAAAgQyRYAAECASLYAAAACVDPZWplOSzrtTKNzRbMUAAAE6s6cjM6q+tedXpmT0GvhzemD/c9Oy4pZHBn7eKqOw3OMo4X45ylHk63inGyOlaRU0tOCZPJXpJF8K46DrV3tDLomrvC1ExcAdCydaL28KOPPq/p32pkWLmzIbfNwKPQxvCqyYPZfev6SbG6ax0JXlLlXVEKl9j9pljhWZHr/GFWesqrylDvmoZg6mmwNTslUzpTlolzKmiIAAAiISiy+mpfMs8sydd4sUnLPzMp+lRyGOxtSuHBJ1f7GeZUTDJly6AZl6jmVUD0zZuaNzSWZf2LMnJecXB0RWdyMd+vWI8Zs3ZaNQkaGBs0sAADw351bsvjupIzVTWxWZHp2VKZfGz3oUjvU5ejpZqu53Hn+XOER3W9DYzL5bl6u1OyaMy1N5vnTbotXVdfn/vJGj1l3CTbRXVq8sy7Z8/vpoAyez0jhTqjtf007NtlamZ6Q9Zmr4WbVAAB0I0+LUrGgExSdkKgEab+LrCDr529KaVq3dqlExtvl+KzIdTtBqrdcK0j+zphZPimF1RtOsnNITman12T87WF7/weJk060hmXx8TXn+WqatRNDvT/dImf29/yMrL/a7DEnnyUnP2KKXuqkjqbl+qU1WZ6iWQsAgMC9ezA+azC7rBKShaqxSlkZd7ua7mzKuk6eXjatRK/OO6079ZbbsjKTNc0nugVLrblZc6yT6b6zEyeTcJmWt2vZqpzA3p+nRe78lFx7oiAb+9tt4JiHZqX03JTaa3JZ8uA9U3TpROuKyM1SU4mWHmqdSsVzWLM+rlaHghNX+NqJCwA60vkhydRNfuqZPBjIrqdn3H6oesubpBKnmyNZmd882v7VuvaPrbrbsLpbMY4skfumaKzckHzmmtCgBQBAWJyB3vmXPWOvjmMnZ/NHu+HqLW/U5pynC7Aot94uOInM+csyfqH+/pY847euv1Vn7Fm9Y2tyzJacvyTZt5bMeVqRG6ty0HoWU0fGbBU310XmJ/bvs8W9tgAACJ7ddfisyIQ9VktPE7I+cvPQtxMP5GT2+RmRVWdslT29ptOPessbNDQkG2433+yw5C8syLLddai7FvVtFg6264zncvanuxvt5faYrHrfoGzz2Fznp2R5/zxNiFR9gzOOUpnMk5XV1dfNbGN0AqZVd/XE9d5Nj+qWqu5MI65oNR3Xmy+ZUmdLPfWCKTmIK96Iq7O4cel7SAJhGhl5+vhvIwIAAKA9lvg4SFq3RsRt0LUfg62JKzx+xAUAQJxYfR/8uCkCAADAb9bOu/4Ofo9Ta4mfrSTEFTw/4wIAIC4CGbMVhwo8iIqbuIITRFwAAMQBA+QBAAACFFiyFWVrSZCtJMTlvyDjAgAgaoG2bEVRgYdRcROXf8KICwCAKAXejRhmBR5mxU1c7QszLgAAohLKmC23Ag+qEne3HXbFTVytiSouAACiENoAeV2xupW4n9xKO6qKm7iaE3VcAACELbRky+VW4O1W4u424lJpE9fx4hYXAABhCT3Z0nSF663EvVMttdZztxEnxOWotV4c4wIAIAyRJFsutwL2TsdV1N4pzmodL3EBANCdIk22aklqRU1cAAB0J+unnsqaIgAAAPxmfajyt6YIAAAAv1m3v/09UwQAAIDfrB+aAgAAAPwXuwHyAAAASZLKZJ6srK6+bmYbk06nTQkAgM5RKpVMCQjHyMjTtGwBAAAEiWQLAAAgQCRbAAAAAWprzFZS7hZe/Qt/iY3rzZdMqbOlnnrBlBzEFW/E1VmSHhdjthA2xmwBAAAEjGQLAAAgQLFLtnTXV/WUBEmNC51Fd6VUT4gvrheQDJGO2aqVcFQqR7eaSh1d089xVdVbT2xcjCmJNb/jaqdi9vOccr0aw/UKlhsXY7YQtsjGbOkkQE86Aameaqm1nruNOElqXOgsulJpp+LW/NgGGsP1ApIv9GTLm4y0w5ucxEFS40Jn8bvCpQIPFtcL6A6hJVs6eXATEj+5iUlUyUlS40Jn0ZVsUBVtkNvuVlwvoLuEkmy5yYjfCYnL3XbYiUlS40JnCatipQL3B9cL6D6BJ1tuQhKGMBOTpMaFzhJ2hUoF3h6uF9CdAk22wkxIXGEkJkmNC50lqoqUCrw1XC+gewWWbEWRkLiCTEySGhc6S9QVKBV4c7heQHcLbYA8AABANwok2Yqy9ccVRCtQUuNCZ4lLKwWtJY3hegHwPdmKQ0Li8jMxSWpc6CxxqzCpwI/H9QKg0Y0IAAAQIF+TrTi1/rj8aAVKalzoLHFtlaC1pDauFwCX9amffdwUAQAA4Dfrhz3nTREAAAB+s25/9x1TBAAAgN8s+VF1slWUudG0pNPONL1iFgMA0M3uzMnorKob3emVOVVjtmpFpmdHZe6OmQ2DffzuPh+xf19jbd7Kayr/2DQzthrHuzkt6ddUknIoLh/p7Zv4RwvtRV9jgPxtGbpWklJJTWszsj4xrUJ8tDgOIne1M5g8qXGhs8R9UDODrg/jeiWQrtBfXpTx51XdOO1MCxc2VI0ZZ1UJyvkpWZ5elqlHjR6KQay5oUmZ3/RkH3c2ZV0Ksrh5kPQU76xL9vzFxuNqijp3r4os2PEvSGb1SlvJnCWnftoUXTnJ5UxxcEgypggAQHcqytxX85J59nCFnntmVtWYSROTWM9fkuy7m/utacXNRcmMzKiky035inLrbZHxoUEz77PNJZl/YszEnJOrI3Io0WuWdfGJHzfFGlbUzibdnQEA0IXu3JLFdydlbMjM11LV7ebtAtNdYu5yu9vrCJXgvFL7uY7qLjTvvCkXqru89PIJmZeC5F9291u9nRoeGauzjenXRtW+TM/Xodg9vWE1l9c73irnL8u4LMot+1idxOrS0JBk3loy27ktG+9mZMhOCL1xHbf9GudZdxXW6CLdbzUzBs9npLCf6DXP+sDO35rigeKcOol6zNbSmJRmSbUAAF3uwiVxq95iQScausL2VPAv69Yg0+32/Iysv3qQ1OSecbvjFmTyretHk53NG5K/sGDWKcnscUldTSqhuqPqa/38ZyelsHpDHVFOZvX+JCszujvwmSbq8mNj1Qqyfv6m2p9u7dKxe7ocnxW57iZ7NZdrtY632qAMXSjIhr1PlVip1Ovy+ZyMPbEum3rZoZananW23/Z5bp31jTePZpSDU8vOmK2xJZV0qRN8dBUAALrHuwdjlgazqo60ExnDHk/kaQ06PyXXnnATBWV/oLVuaapBd5m9NdHGIGyVUGVN2jE0po7EJCStOi5WW/ag+86MpbJbz3SMr847LUD1ltsaO979cVs6sbowpNIvkYvnne686panw+psv9Z5HpqV0nNT9raDdPwd5HOzsjCpXjANtJzpIeSpVDyHa+vjanWIe1LjQmepvPmSKcVT3I8vbFyvhDmvxy+3mMDorrT9gdZrMnPBLPeyB3iX5KZcsROTo92IIWop1kkTn5n2W9HqLW+QGbe1ohKrySHnuYND4+qc3mptvFYT57m62/D45O7RjiZbKyue5rwVWZrPyqXWtw8AQIdzBkjnX67z7Xw7QZmXJbfyVgnW9bdMS9edDSm43XL2eChdqE23Iq2NZGX9TnUL10W5tN+lpuiWHlP03yNirWZiP+giNOotb4Y9bisvE6sil9zB+nq7b+Ulvz9eq3mHznOdMVtOK5g7PmxFbqhjaGcw/tFk6+KmXDf32EqnJ1Q6vixTQbevAQAQY3Z32rMiE3Z3oJ4mZH3kpvnGXk5m7XFa5jF7rJL59t7QVZlRCcOwXv7VDcnUatny3M9peDUj17LVle6gTH16Uubd7auk7nC3Xj16jJPpyqs5ML+242Ot5sQuq8P7MTj7qre8GYNy+fGsyAU9XssssmNS/9Qdr3WMR55nD90Ktn8OVC5U9e3MZqUymScrq6uvm9nG6ERMq+7Cius9qR7V3VbdSZjYuBLSdVB9j6BuiSvO90Y67hpwveKnm6+XHo8MhGlk5OlHjNkCAABAW3xNtnQrS9wGk/sxiDypcaGzxLWFISktH37jegFw0bIFAAAQIN+TrTi1AvnZ+pPUuNBZ4tYqQSvJ8bheALRAWrbikJgEkZAkNS50lrhUmFTcjeF6AaAbEQAAIECBJVtRtgIF2fqT1LjQWaJupaCVpDlcL6C7BdqyFUViEkZCktS40FmiqkCpuFvD9QK6V+DdiGEmJmEmJEmNC50l7IqUirs9XC+gO4UyZstNTIJKTtxth52QJDUudJawKlQqbn9wvYDuE9oAeZ0wuMmJn9xkJKqEJKlxobPoijWoyjXIbXcrrhfQXUJLtlxuYtJucuJuIy7JSFLjQmfxu5Kl0g4W1wvoDqEnW5pOJLzJiXeqpdZ67jbiJKlxobPoCrfdStePbaAxXC8g+VKZzJOV1dXXzWxj0um0/W8QSUGttCTo5KN6n4mNKyEfxu6v97uIq3HV+9CCPn9cr9ZxvfzjxlUqlex/gbCMjDwdTcvWcXQCUj0lQVLjQmfRFWf1hPjiegHJELtkCwAAIElItgAAAAJEsgUAABAgki0AAIAAkWwBAAAEqK1bPwAA0Em49QPCFstbPwAAACQJyRYAAECASLYAAAACFLuf64kCP2vTWYirsxBXZ0l6XIzZQtgYswUAABAwki0AAIAAxS7Z0l161RMAAECnijTZqpVYVSqVI1Ot9QAAADpBJMmWmzDVSqxqqbUeSRcAAOgE1lPn/pEphsObZLXDm3QBAADElfX3u+GkK25LVLtJVjU34SLpAgAAcWT99db7phgcN8nyO9Fyudsm4QIAAHET+JitIFqz6iHhAgAAcRNoshVmouUi4QIAAHESWLIVRaLlIuECAABxEel9tgAAAJIukGQrylYtF61bAAAgDizZe8sU/RGHRMtFwgUAAKJGNyIAAECAfE224tSq5aJ1CwAARImWLQAAEI3NaUnPpmW0UDQLAnRnTkbVvtKzozJ3xywLCckWAABAgEi2AABANIZmpTRdkuXsoFmQTMcmW8W5UUmPzkkIjXsAAACJdEyytSI38gVTfrQ4Do53MUgeABC6Oysy/YoeI+SME5rW45LccUOvrZiVRIqFUfX4tKp1veurec+4ouLmnOcxNb2itrdZvymk0fVXXtOP6zFMRZl7TR+Hu/60zB2zfYd6jr2Po2OgnJjUY544bdXx1xiz1ewxFdU2Rr2x2ud6JVYNRXWTreLcdZGZGcmaeQAA0CCdVLw8IfPvmnkpyPzqsEoqNsz8UUuveda/cEkunneKOnEZfjXv2Zbyrtreq2p71cmM0uz6+tjyLw9L/i1PA8u785J/9cojBpIPyuXHdZZQkI1D6xXl1ttmW+9uHk567myotUUmh3LOfF2NHZMT67wUvLHa53pChl+JT89c7WSrOCdXNq7J7GUzDwAAGlSUua/m7aQi+8SCrE2X7HFJa89OSuEtlRg4K1WZl/m3sjLzvLNu6bkplcoom9MyvKqecWFSFp5fcx7T0/MLMnlBpRVvTcj0pr0BR7Pr71P7ftZdf01m1Lp2wlOolZwdGBwatxtl5jc96925JYtu8vPuotzyJEcrm/Pqv5MyNuTMH+9Rx7QiN3Ssej33vJlY7XWr9h2lGsmWepFcWZTxq4/KOgEAwBFusnFhRm4+k3OSJmVwaFbWRur3F2VHbsqUac1yOcmJSiY+Nyu5855B5OdzMvucSqBU0ZvoNLu+y9730P6RytSn9ZoNOH9Zxu3ExtOCZbdeqWMY0dvwtnqtyJL+0RrdaucsOFZTx3TH04alYp16Tidey0fOZ1SOJFvFuSuyOK4C9FwjAADQINNVln388n6i5XJbgmrJeJMjW1E27RYi3aXmHZPkThOiU6uDRKfZ9V1ZGd9Paozzl+oe52GDMlTViuQkfBkZyo4dTu42l+z91zovRzVyTDkZe0L/q+J9ddiJUY9N0+O1YtKi5apKtpxB8YW8Oui0OujhvBQKeRlu4BuJemh8KhXPYej6uOI5dB8AgHpuy8ahsUh1vLuh1tSaXd8fuSGnBWvRHrxuEr4nxlQqdFEueVq93Fa3I0lUG3LPrMnCE54UTI9N0+O1dLL5iv7SQTxUJVs5mS2VpOROazOSzc7I2rLpOwYAACExyYpMyoI7HqnmNKtq71bW98mQ04JVuKNSONOFmj2vOwrNAHo7uTNJ2IVxuexr196gSriW7bjW9FitJyYla58D5d15maj5hYDw1R4gDwAAWmO6uwpv3zrSK1TcXLS7GBtjuuhkXpZqDmqv1uz6fjHdeW8tyYoZr+W2Xg2ez6j/quMpmCSsoS7E1gzqsVrPzMqyHq/1/IydAB7qMj0/Jct2shn+WK7jk61BdWC0agEA0Lj9QeN5ufLawf2e9P2grtjfnmuc00Wn0pVXq++TVZSVGveyanZ9vzj7XZfrf2bGa7nJjEk851f1tzP97ULcv2eX7i6sGqNVVEmfPT4tJmjZAgDAV4My9TnnPpX6VgvD9uD0tHM/KGeFxg3NmjFJzn2ynIHuehqWCTtxm5SFZzydgs2u7xc7qSo497uyx2sZbuKp+d2FeH5KrukWNd1dWPWFAH2u9fiwmc95G4xWZNp+vMN/iDqOg+QZHA8ACJ3usjL3ttqn7331bPM3C9djkvQ9uvbHItmy5h5eR8dfNbu+LzxJlTNey+V2bSoXhnzvKcs949y/7HCs6hiemJGF5+Nz64dUJvNkZXX1dTPbGP1NRa1WEhO3n+1pJNmqTg8rb75kSp0t9dQLpuQgrngjrs5CXJ3FjUt/+StS+udpXp2X7Mha4n98GY6Rkaf970aMU+sWrVoAgNC5Y4mqft/Q/q1Ee0xTrXtqIckCGbMVh4SLRAsAEIn9LrWqsUTubyU+sSCzDf1cDZKCAfIAAPhqUKaec262eWh81oWsTOrf+gtigDpiLbBkK8rWLVq1AADRcm626dzXyUzPLcusn7c+QMcItGUrioSLRAsAAMRJ4N2IYSZcJFoAACBuQhmz5SZcQSVd7rZJtAAAQNyENkBeJ0JBtHK5SRaJFgAAiKPQki2Xm3C1m3S52yDJAgAAcRZ6sqW5LVFuwuSdaqm1nrsNAACAOIsk2XK5CZN3Oi6x8k4AAACdINJkqxYSKwAAkCSxS7YAAACShGQLAAAgQCRbAAAAASLZAgAACBDJFgAAQIBSmcyTldXV181sY9LptCkBANA5SqWSKQHhGBl5mpYtAACAIJFsAQAABIhkCwAAIEBtjdmqvPmS/W+nSz31gik5iCveiKuzEFdnqY5Lfsv82+lMHIzZQtgYswUAABAwki0AAIAAkWyFRDfNV09A2JL6OkxqXACSgTFbSvUHc7txtfNB7+c59TuuuCCuxiT1dZjUuOLiyPllzBbQFsZs+Ux/SLVTEWh+bAPdLamvw6TGBSD5SLZ84vcHOBUCWpHU1yHvLwCdjGSrTfpDO6gP7iC3jWRJ6uswqXEB6C4kW20I64OaCgHHSerrkPcXgKQg2WpRUisedBYSIH/w/gIQJJKtFkT1wUyFAK+kvg55fwFIGpKtJkX9gUyFAC2pr0PeXwCSiGQLAIAYO3fuHJOa8vm8OSOdh5uaKtV/zdaLK05/9TZy7huNq9N0e1xJfR0mNa5Oc+Q6cFPTyOlE45133jFz3emP//iP5Y033pCZmRmzpHNwU9MmxKki0OJ2PAhHUl+HvL+ARzt79mzXTp2OZAsAACBA1unex0wR9cT1r1z++u4uSX0d8v4CkHTWub4PmiIAAAD8Zj0sb5siAAAA/GbtVh6aIgAAAPxm9ab6TfFAcW7Uvr2DM03LilkOAADiYEWm9+tpPY3KXNE8ZD/mnW/fyrTax7QP2UBxTkZ9PrZOYPVbA6Z44PZGQSYXSvb9SEqlWcmZ5d0o7oNkGcTbHZL6OuT9BbQjKzNrTl29NiOSvzIngeQwKkG6vj4pk+vX20+SBqdkubQsU4NmvktY7+/eMUWvrFy6aIoAACDWBqeuyWRhUW4FkG0Vby2KjF+Vq+Mii0HsoAtYd3feM0VXUTbXC5IfdpomR7utrQ8AgASxuwDd7ka7K7Aoc6NpOdQruDIt6dFaLWNFsXOty4MyeNnOtg6vY3cLuvnC3KHuy6P7tZd61jHlObXv/W0kM+eocVPTQZladrsQFySTv9J1fasAAHSS4tx1mc+Oi8qJjsjNHtTpk/O6K1DV89cmZX7pINtaWZqXyWtTKgOoUrwli2K2O3hZlbytZypZGs5Lxgw7uqkemzePaEf3ax44pCD5jTFnvYVJKeRvqK0mzyPuIJ+TsckCzYYAAMTOQS/UcD4jC8s1kiVNt1rZLUcTB8lQbkwlQEsmsVmRpfUZuVpjgLbThXjZbHdQdONW/oZJh4qbsp49eJ7dlekUHbX2e0RWZtwN6GOSddlMYMrR0M/1ZIZqXr6uEPcfl03Kj9/ieEl9HfL+AtpxMEC+7pfZdDffhMiCvc6azGTNcrX21Zl1uT5XtFvF1vcTKq8VuZEvSCE/bJImndQVRPaTtGPU3W93Oj7Z0t9AmGewPAAAHen2hhSyl8SuxnWXoMqVXM4YrBtyw4zJOmJlSeazM7JmJ0zupBOnebF7IAeHJFPIy35Dl+7KdIrH7rcb1Ui2PPfusPtiu+8rmgAAJELuqsxIXoZ1nX5lQzLeFqbBKbmWmZf5zLWa9bwex5U90uKluxKzZrxXTmYXJmV+wskZrsj4QTficfvtQqlM5snK6urrZrYx+qRqSWlir76XTnVccb7XznHX4FFxdapujSupr8OkxtWpjlyP3zL/djoTh26d6TTnzp2Td955R86ePWuW+Ed/Y3BprCSzftxQU3cdDm/ItQDuz/lHf/RH8sYbb8jMzIxZ0jlGRp5ubMwWAABIGD1UqM7A+Fas3MgfdB3iEJKtBsT1L9ak/CWNxiT1dcj7Cwibc5+t9PCijN+s8w3Ghpjt6K5CNU3MT9b/RmSXI9kCAKCruPfTbHdMtve+nHrq7p/3Ow7JVoPi9lcuf3V3p6S+Dnl/AUgykq0mxOUDmIqguyX1dcj7C0BSkWwBAAAEiFs/KM1+hTvKr6o3c8675avpvA7DF+TrMKlxdYoj559bP0RO3/rhK1/5ipnrXp186weSLaWVD80oKoRmz3e3VAa8DsMVxuswqXF1giPnnmQrcvl83pRAstXBWv3QDLNCaOVcd0tlwOswma/DpMYVd0fOO8kW0Bb7pqaPn/xJM4tmhfXhmpQPcQQjqa9D3l8AksLq6f+YKaIV+oM6qA/rILeNZEnq6zCpcQHoLtbte39pimiH3x/aVAJoRVJfh7y/AHQy6+HuX5ki2qU/wNv9EPdjG+huSX0dJjUuAMnHAHkljIGutQb7Bn3+umUAL3E1Lqmvw6TGFYUj55IB8kBb7AHyqd6Pm1kESX8QV09A2JL6OkxqXACSwXr89IdNEQAAAH6zKg8ZswUAABAU6+0HfBsRAAAgKPwQNQAAQIBItgAAAALU1q0fAADoJNz6AWGzb/1gygAAAAgAyRYAAECASLYAAAACxM/1KN3ysxvEFW/E1Vmq40raz9rs4+d6gLbYY7Yqd39oZgEAAOA3uhEBAAACZFUqFVME4NJdRNUT4iux10t3fVVPADpO6md+6qOVr39r3cw2hjFbnYG4GtNOxeznOeV6NSau16vtRKid5/uZhFVvKykJnomDMVsIm7nPVsrMAt1FV5btVNyaH9tAYxJ7vXQS0G5C48c2AATGkhTdiOg+fle4savAEyax18vvBImEC4glBsijq+hKNqiKNshtd6vEXq8gW6KC3DaAllh0IqJbhFWxRlaBJ0xir1dYiRAJFxAbVoq2LXSBsCtUEq72JPZ6hZ0AkXABsWD19vaYIpBMUSU+JFytSez1iirxIeECImf19/ebIpA8USc8JFzNSez1ijrhIeECImUNDJBsAQAABMXq7e01RSBZ4tKqROtWYxJ7veLSqkTrFhAZq1IpmyKQHHFLcEi4jpfY6xW3BIeEC4iEtb29bYoAAADwm7W3u2eKQDLEtRWJ1q3aEnu94tqKROsWEDorxW1NAQAAAmNxV1MAAIDgkGsBAAAEyOqxamdbK9NpSaf1NCpzRbMQAAAATbEUUzygE63rl9akVCqpaVmmBs0DQMzFfRA6g+QPS+z1ivsgdAbJA6GyyuXq+2ytyNL6jNwkwwIAAGibtbdXdeuHlSWZz2zIDbsLUU2jc0IvIgAAQGus3d1dU/SYX5dLa7oLsSQLmbxcYdAWAABASyzL6jFFj8lr++O0cmOTUti47cwAAACgKVaKez8gQSpvvmRK8RT34wtbYq8XA+QBeBzNtHJjMjl/3dzuoShz1+dlcixnPwQAAIDmWJVKxRRdOZldG5fFYT1AfljymQWZJdcCAABoibW3V33rB2VwSpbte2ypiUwLAACgZZYcadkCAACAX6xUnZ/rATpVXAddMzi+tsRer7gOQmdwPBC6GmO2AAAA4Bdrd6fGTU2BDhe31hJatY6X2OsVt1YkWrWASFgVoWULyRSXCpxEqzGJvV5xSXBItIDIWJaVMkUAAAD4rfbP9QAJEXVrCa1azUns9Yq6VYlWLSBSlsXP9SDhoqrASbRak9jrFVXCQ6IFRM6SFN2ISL6wK3ASrfYk9nqFnfiQaAGxYDE+Ht0irAqVRMsfib1eYSVAJFpAbFjlMtkWuoeuWIOqXIPcdrdK7PXSiVBQyVCQ2wbQEm5qiq7kdyUbWaXdJRJ7vfxOikiygFiiZQtdS1e47Va6fmwDjUns9fKjJcqPbQAITOqTH/+Jyp/+xbfNbGPS6bT9b1IqmdRTL5iSg7jiLYy4qvehBX3+uF6ti8P1CiTZqbXNoJOq6u0nJYkzcZRKJacAhGRk5GlatoBadEVdPSG+Enu9dIJQPQHoOFbK4j5bAAAAQeEO8gAAAAGyUtxBHgAAIDBWmVs/AAAABMaqVMqmCAAAAL+lMoP/oLK69n/MbGPcWz8AANBJuPUDwmbf+qEi/BA1AABAUKwy3YgAAACBsRgfDwAAEJzUxZ/8WOWbb37HzDaGn+vpDMTVWbolrsTcBb06DuKKNxMHY7YQNnvM1t4e3YgAAABBsRgfDwAAEBxuHw+g8+kuouoJAGKCZAtAZ2k0sWp0PQAIGMkWgM7gR8JE0gUgAiRbAOLP7wSJhAtAiFSyxQh5ADEVZEtUkNsGAA++jQggnsJKhEi4AATMSpFtAYibsBMgEi4AAbJSKZItADESVeJDwgUgIAyQBxAfUSc8JFwAAmDRrgUAABAcuhEBxENcWpVo3QLgM0sqFVMEgIjELcEh4QLgI1q2AAAAAkSyBSBacW1FonULgE8soRcRAAAgMIzZAgAACBC3fgAAAAjQkZuaFudGJZ1OV03TsmIeBwAAQOOs6vHxg1PLUiqV9qe1maxkZ65KzjwOAL6J+yB0BskD8MEjfoh6RW7kM3JtatDMAwAAoBnW8bnWkqzTqgUAANCyY36Iuihz19dl/DKtWgAAAK2yKvVu/VC8JYuZa0IPIgAAQOusenfZKt5alMwYHYgAAsQAeQBdwPrA+Q+YoldRVK4lly6aWQAAALTE+shHP2qKXrdlo5CRIboQAQAA2mL9xE/8hCl65WS2NMu3EAEAANpkbW1vmSIAAAD8Zv3wzh1TBIAIxHUQOoPjAfjE+su/fMcUAQAA4Dfr/r17pggAEYlbKxKtWgB8ZO3u7poiAEQoLgkOiRYAn1lS766mAAAAaJtVLpdNEQAiFnWrEq1aAAJQ/7cRASAKUSU8JFoAAmIJyRaAuAk78SHRAhCguj9EDQCRCisBItECEDArlUqZIgDEjE6EgkqGgtw2AHioZMsyRQCIKb+TIpIsACGyrB6SLQAdwI+WKD+2AQBNomULQGdxEybvVEuj6wFAwKyenl5TBIAORWIFIMasvv4+UwQAAIDfLMUUAQAA4DeLe5oCAAAEx9rjtxEBAAACY+3u7poiAAAA/Jb6h0/8TOV//dnXzWxj0um0KQEA0DlKpZIpAeEYGXlarNOnz5hZAAAA+M0qM2YLAAAgMNbdu3dNEQAAAH5LPXFxqPJn3/yGmW2MO2ar8uZL9r+dLvXUC6bkIK5465a4EnMX9Oo4iCveEh4XY7YQNnvMlmX1mFkAAAD4zZKUKQEAAMB3/FYPAMSV7vqqngB0HKtc4duIABC5RhOrRtcDEBvW3t6eKQIAQudHwkTSBcSatbtLsgUAkfA7QSLhAmLJqkjFFAEAoQiyJSrIbQNoidXf32+KAIDAhZUIkXABsWGlUtz7AQBCEXYCRMIFxAID5AEgDFElPiRcQORItgAgaFEnPCRcQKSsvTLJFgAAQFAYswUAQYpLqxKtW0Bk+LkeAAhK3BIcEi4gEla5zM/1AAAABMWqcE9TAPBfXFuRaN0CQmcxZAsAACA4lgjZFgAAQFAsUi0AAIDgWDWHbK1MSzqdtqfRuaJZCAAAgGapZKs63VqR6Yl1mVkrSam0IJn8FSHfAoAmxH0QOoPkgVBZR3Kt4qasZ8fl8qCeycnYZEE2btuPAAAAoElWpVJ1n63ByzIui3LLbs1akaX5SRnL2Y8AAACgSTXuszUoUzdVujWsx2xNiCzMCrkWAABAa44OkC/OyegVkZslPWarJGNLaZleMY8BAACgKUdu/VC8tSgyflnsIVtKbmxS5pfItgCgYQyQB+Bx5IeoB4cyUli8Je4XEFeW5iV76aKZAwAAQDOO/lxPblbWxhdl2Nxna0IWZHnKbecCAABAM460bGmDU8v2eC17mmV4PAAAQKv4bUQAAIAAqWSr5g/2AADaEddB6AyOB0JX+7cRAQAA4IuaY7YAAD6IWysSrVpAJI7+NiIAwD9xSXBItIDI0LIFAAAQIEsxRQBAIKJuVaJVC4hUjR+iBgD4LqqEh0QLiJyVOnILeQBAIMJOfEi0gFjgPlsAEKawEiASLSA2rAr9iAAQLp0IBZUMBbltAC0h2QKAqPidFJFkAbHEVxEBIEp+tET5sQ0AgeHnegAgDtyEyTvV0uh6AGLD4ruIABBTJFZAItCyBQAAECDGbAEAAASIZAsAACBAjNkCAAAIkJVK0bgFAAAQlNTHPvaxyne+8x0z25h0Om1KAAB0jlKpZEpAOEZGnmbMFgAAQHBE/j/8AUNf8esWXwAAAABJRU5ErkJggg==;" vertex="1" parent="1">
          <mxGeometry x="1743.9994117647059" y="1831.0029411764708" width="603" height="485" as="geometry" />
        </mxCell>
        <mxCell id="5DEDQGz0tck6MsNurVrF-45" value="Score Display, Green has 10 points, so they win" style="shape=curlyBracket;whiteSpace=wrap;html=1;rounded=1;flipH=1;labelPosition=right;verticalLabelPosition=middle;align=left;verticalAlign=middle;" vertex="1" parent="1">
          <mxGeometry x="2360" y="1875" width="20" height="158" as="geometry" />
        </mxCell>
        <mxCell id="5DEDQGz0tck6MsNurVrF-47" value="Player&#39;s turn replaced by win message" style="shape=curlyBracket;whiteSpace=wrap;html=1;rounded=1;flipH=1;labelPosition=right;verticalLabelPosition=middle;align=left;verticalAlign=middle;" vertex="1" parent="1">
          <mxGeometry x="2360" y="2041" width="20" height="55" as="geometry" />
        </mxCell>
        <mxCell id="5DEDQGz0tck6MsNurVrF-50" value="Button to play again" style="shape=curlyBracket;whiteSpace=wrap;html=1;rounded=1;flipH=1;labelPosition=right;verticalLabelPosition=middle;align=left;verticalAlign=middle;" vertex="1" parent="1">
          <mxGeometry x="2360" y="2110" width="20" height="52" as="geometry" />
        </mxCell>
        <mxCell id="5DEDQGz0tck6MsNurVrF-51" value="&lt;span style=&quot;font-size: 14px;&quot;&gt;Green player has filled the goals,&lt;/span&gt;&lt;div&gt;&lt;span style=&quot;font-size: 14px;&quot;&gt;&amp;nbsp;so they have won&lt;/span&gt;&lt;/div&gt;" style="text;html=1;align=center;verticalAlign=middle;resizable=0;points=[[0.06,0.22,0,0,0],[0.2,0.11,0,0,0],[0.38,0.06,0,0,0]];autosize=1;strokeColor=none;fillColor=none;labelBackgroundColor=default;fontSize=17;" vertex="1" parent="1">
          <mxGeometry x="1842" y="2041" width="223" height="53" as="geometry" />
        </mxCell>
        <mxCell id="5DEDQGz0tck6MsNurVrF-52" value="" style="shape=curlyBracket;whiteSpace=wrap;html=1;rounded=1;flipH=1;labelPosition=center;verticalLabelPosition=middle;align=center;verticalAlign=middle;rotation=90;horizontal=0;size=0.5;labelBackgroundColor=none;" vertex="1" parent="1">
          <mxGeometry x="1960.5" y="2121" width="29" height="431" as="geometry" />
        </mxCell>
        <mxCell id="5DEDQGz0tck6MsNurVrF-53" value="Game Board" style="text;html=1;align=center;verticalAlign=middle;resizable=0;points=[];autosize=1;strokeColor=none;fillColor=none;" vertex="1" parent="1">
          <mxGeometry x="1934" y="2348.5" width="86" height="26" as="geometry" />
        </mxCell>
      </root>
    </mxGraphModel>
  </diagram>
</mxfile>
